<?xml version="1.0" encoding="utf-8"?>
<!-- Generator: Adobe Illustrator 21.0.0, SVG Export Plug-In . SVG Version: 6.00 Build 0)  -->
<svg version="1.1" id="Layer_1" xmlns="http://www.w3.org/2000/svg" xmlns:xlink="http://www.w3.org/1999/xlink" x="0px" y="0px"
	 viewBox="0 0 55.9 43.3" style="enable-background:new 0 0 55.9 43.3;" xml:space="preserve">
<style type="text/css">
	.st0{fill:none;stroke:white;stroke-miterlimit:10;}
	.st1{fill:white;}
</style>
<title>carnival-logo</title>
<line class="st0" x1="1" y1="42.7" x2="20.6" y2="42.7"/>
<path class="st1" d="M7.3,0.6l0.1,3H7.2C7,2.8,6.7,2.1,6.3,1.4C6,1,5.6,0.8,5.1,0.8H5v7.9h1V9H1.6V8.7h1V0.8H2.5
	C2,0.8,1.6,1,1.3,1.4C0.9,2.1,0.6,2.8,0.4,3.6H0.1l0.1-3C0.2,0.6,7.3,0.6,7.3,0.6z"/>
<path class="st1" d="M8,0h2.9v4.4C11,4,11.2,3.7,11.5,3.5c0.3-0.3,0.8-0.4,1.2-0.3c1.2,0,1.9,0.7,1.9,2v3.6h0.7V9h-3.4V8.7h0.5V4.8
	c0-0.3,0-0.6-0.1-0.9c-0.1-0.1-0.2-0.2-0.4-0.2c-0.3,0-0.5,0.2-0.7,0.5C11,4.6,10.9,5,10.9,5.4v3.3h0.5V9H8V8.7h0.6V0.2H8V0z"/>
<path class="st1" d="M16.2,8.3c-0.5-0.6-0.8-1.4-0.8-2.2c-0.1-0.8,0.3-1.6,0.9-2.2c0.6-0.5,1.4-0.8,2.2-0.8c1.8,0,2.7,0.9,2.6,2.7
	h-3.4v0.5c0,0.6,0.1,1.2,0.3,1.8c0.2,0.4,0.6,0.6,1,0.6c0.9,0,1.7-0.6,1.8-1.5H21c-0.1,0.5-0.4,1-0.8,1.3C19.7,8.9,19.1,9,18.4,9
	C17.7,9.1,16.9,8.9,16.2,8.3z M17.8,5.7H19V5.1c0-0.4,0-0.9-0.1-1.3c0-0.2-0.2-0.4-0.5-0.4c-0.2,0-0.4,0.2-0.5,0.4
	c-0.1,0.4-0.2,0.9-0.2,1.3L17.8,5.7z"/>
<path class="st1" d="M6.8,15.2v8.1H5.1L1,15.6v7.5h0.7v0.2H0v-0.2h0.6v-7.9H0V15h3.3l3.1,6v-5.8H5.8V15h1.6v0.2H6.8z"/>
<path class="st1" d="M8.6,22.8c-0.5-0.6-0.8-1.4-0.8-2.2C7.7,19.8,8,19,8.6,18.4c0.6-0.5,1.5-0.8,2.3-0.8c0.8-0.1,1.6,0.2,2.2,0.7
	c0.5,0.6,0.8,1.4,0.7,2.2c0,2-1,3.1-3,3.1C10.1,23.6,9.3,23.3,8.6,22.8z M11.6,21v-1c0-0.6,0-1.1-0.1-1.7c-0.1-0.4-0.3-0.5-0.6-0.5
	c-0.2,0-0.3,0-0.4,0.1c-0.1,0.1-0.2,0.3-0.2,0.5c-0.1,0.5-0.1,1.1-0.1,1.6v1c0,0.5,0,1.1,0.1,1.6c0,0.1,0.1,0.3,0.2,0.4
	c0.1,0.2,0.3,0.3,0.5,0.3c0.3,0,0.6-0.2,0.6-0.5C11.6,22.2,11.7,21.6,11.6,21z"/>
<path class="st1" d="M13.8,17.9v-0.2h3.6v0.2h-0.8l1.4,4l1.3-4h-0.7v-0.2h1.6v0.2h-0.5l-1.8,5.5h-1.4l-2.2-5.5H13.8z"/>
<path class="st1" d="M20.9,22.7c-0.5-0.6-0.8-1.4-0.8-2.2c-0.1-0.8,0.3-1.6,0.9-2.2c0.6-0.5,1.4-0.8,2.2-0.8c1.8,0,2.7,0.9,2.6,2.7
	h-3.4v0.5c0,0.6,0.1,1.2,0.3,1.8c0.2,0.4,0.6,0.6,1,0.6c0.9,0,1.7-0.6,1.8-1.5h0.2c-0.1,0.5-0.4,1-0.8,1.3c-0.5,0.4-1.1,0.5-1.8,0.5
	C22.3,23.5,21.5,23.3,20.9,22.7z M22.4,20.1h1.2v-0.6c0-0.4,0-0.9-0.1-1.3c0-0.2-0.2-0.4-0.5-0.4c-0.2,0-0.4,0.2-0.5,0.4
	c-0.1,0.4-0.2,0.9-0.2,1.3L22.4,20.1z"/>
<path class="st1" d="M26.2,17.7h2.9v1.1c0.2-0.8,0.9-1.3,1.8-1.2c0.8-0.1,1.5,0.5,1.6,1.3c0.2-0.8,0.9-1.4,1.8-1.3
	c1.2,0,1.8,0.7,1.8,2v3.6h0.7v0.2h-3.3v-0.2h0.4v-3.9c0-0.4,0-0.7-0.2-1.1c-0.1,0-0.1-0.1-0.2-0.1c-0.2,0-0.4,0.2-0.6,0.5
	c-0.2,0.4-0.3,0.8-0.3,1.2v3.4H33v0.2h-3.1v-0.2h0.4v-3.9c0-0.4,0-0.7-0.2-1.1c-0.1,0-0.1-0.1-0.2-0.1c-0.2,0-0.4,0.2-0.6,0.5
	C29.1,19,29,19.4,29,19.8v3.3h0.4v0.2h-3.3v-0.2h0.7v-5.3h-0.7L26.2,17.7z"/>
<path class="st1" d="M39.8,14.4v4.2c0.3-0.6,0.9-1,1.6-1c1.5,0,2.2,1,2.2,3c0.1,0.8-0.2,1.6-0.6,2.2c-0.5,0.5-1.2,0.8-1.9,0.7
	c-0.3,0-0.7,0-1-0.2c-0.2-0.1-0.4-0.4-0.4-0.6v0.7H37v-0.2h0.7v-8.6H37v-0.2C37,14.4,39.8,14.4,39.8,14.4z M41.1,18.5
	c-0.1-0.3-0.2-0.4-0.5-0.4s-0.5,0.2-0.6,0.4c-0.2,0.4-0.3,0.8-0.3,1.2v2.2c0,0.3,0.1,0.6,0.2,0.9c0.1,0.2,0.3,0.4,0.6,0.4
	s0.4-0.2,0.5-0.5c0.1-0.6,0.2-1.2,0.1-1.9v-0.6C41.3,19.6,41.2,19,41.1,18.5L41.1,18.5z"/>
<path class="st1" d="M44.8,22.7c-0.5-0.6-0.8-1.4-0.8-2.2c-0.1-0.8,0.3-1.6,0.9-2.2c0.6-0.5,1.4-0.8,2.2-0.8c1.8,0,2.7,0.9,2.6,2.7
	h-3.4v0.5c0,0.6,0.1,1.2,0.3,1.8c0.2,0.4,0.6,0.6,1,0.6c0.9,0,1.7-0.6,1.8-1.5h0.2c-0.1,0.5-0.4,1-0.8,1.3c-0.5,0.4-1.1,0.5-1.8,0.5
	C46.2,23.5,45.4,23.3,44.8,22.7z M46.3,20.1h1.2v-0.6c0-0.4,0-0.9-0.1-1.3c0-0.2-0.2-0.4-0.5-0.4c-0.2,0-0.4,0.2-0.5,0.4
	c-0.1,0.4-0.2,0.9-0.2,1.3L46.3,20.1z"/>
<path class="st1" d="M54.1,18c-0.3,0-0.6,0.3-0.8,0.6C53.1,19,53,19.5,53,20v3.2h0.9v0.2h-3.7v-0.2h0.7v-5.3h-0.7v-0.2H53v1.1
	c0.1-0.4,0.3-0.7,0.6-0.9c0.3-0.2,0.6-0.3,1-0.3c0.3,0,0.7,0.1,0.9,0.3c0.2,0.2,0.4,0.6,0.4,0.9s-0.1,0.6-0.3,0.9
	c-0.2,0.2-0.5,0.3-0.8,0.3s-0.6-0.1-0.8-0.4s-0.2-0.7-0.1-1h0.4C54.6,18.2,54.5,18,54.1,18z"/>
<path class="st1" d="M4.5,29.5c-1.2,0-1.9,1.2-1.9,3.6v1c0,0.9,0.1,1.8,0.5,2.7c0.2,0.6,0.8,1,1.4,1c0.9,0,1.7-0.9,2.4-2.6h0.2
	L7,37.9l0,0c0-0.1-0.1-0.1-0.1-0.2c0,0-0.1-0.1-0.2,0c-0.3,0-0.6,0.1-0.9,0.2c-0.5,0.1-1,0.2-1.5,0.2c-1.1,0.1-2.2-0.3-3-1.1
	c-0.8-0.9-1.2-2-1.1-3.2c-0.1-1.2,0.3-2.4,1.1-3.3c0.8-0.8,1.9-1.2,3-1.1c0.5,0,1,0.1,1.4,0.2c0.3,0.1,0.5,0.1,0.8,0.2
	c0.1,0,0.1,0,0.2,0c0.1-0.1,0.1-0.1,0.1-0.2H7l0.1,2.6H6.9c-0.3-0.7-0.7-1.3-1.1-1.9C5.5,29.8,5,29.5,4.5,29.5z"/>
<path class="st1" d="M11,35h0.4v-1c0-0.5,0-1-0.1-1.5c0-0.2-0.3-0.4-0.5-0.4c-0.1,0-0.3,0-0.4,0.1c-0.1,0.1-0.2,0.2-0.2,0.3
	s0,0.3,0.1,0.4h0.3c0.1,0.2,0.1,0.4,0.1,0.6c0,0.2-0.1,0.5-0.3,0.6c-0.2,0.2-0.5,0.3-0.8,0.3c-0.7,0-1-0.3-1-1c0-1,0.8-1.5,2.5-1.5
	c0.7-0.1,1.4,0.1,2,0.5c0.4,0.5,0.6,1.1,0.6,1.8v2.4c0,0.4,0.1,0.6,0.4,0.6s0.4-0.4,0.5-1.2h0.2c0,0.5-0.1,1-0.4,1.5
	c-0.3,0.3-0.7,0.4-1.1,0.4c-1,0-1.5-0.3-1.7-0.9c-0.1,0.3-0.2,0.5-0.5,0.7s-0.6,0.2-0.9,0.2c-1.2,0-1.8-0.5-1.8-1.5
	c0-0.5,0.2-1,0.7-1.2C9.6,35,10.3,34.9,11,35z M10.6,37.3c0,0.1,0.1,0.2,0.3,0.2c0.1,0,0.2-0.1,0.4-0.3c0.1-0.3,0.2-0.6,0.2-0.9
	v-1.1h-0.1c-0.5,0-0.7,0.4-0.7,1.1v0.2C10.5,36.7,10.5,37,10.6,37.3z"/>
<path class="st1" d="M18.7,32.4c-0.3,0-0.6,0.3-0.8,0.6c-0.2,0.4-0.4,0.9-0.3,1.4v3.2h0.9v0.2h-3.7v-0.2h0.7v-5.3h-0.7V32h2.9v1.1
	c0.1-0.4,0.3-0.7,0.6-0.9c0.3-0.2,0.6-0.3,1-0.3c0.3,0,0.7,0.1,0.9,0.3c0.2,0.2,0.4,0.6,0.4,0.9c0,0.3-0.1,0.6-0.3,0.9
	c-0.2,0.2-0.5,0.3-0.8,0.3s-0.6-0.1-0.8-0.4c-0.2-0.3-0.2-0.7-0.1-1H19C19.1,32.6,19.1,32.4,18.7,32.4z"/>
<path class="st1" d="M20.6,32.1h2.9v1.1c0.1-0.3,0.3-0.7,0.6-0.9c0.3-0.3,0.8-0.4,1.2-0.3c1.2,0,1.9,0.7,1.9,2v3.6h0.7v0.2h-3.4
	v-0.2H25v-3.9c0-0.3,0-0.6-0.1-0.9c-0.1-0.1-0.2-0.2-0.4-0.2c-0.3,0-0.5,0.2-0.7,0.5c-0.2,0.4-0.3,0.8-0.3,1.2v3.3H24v0.2h-3.4v-0.2
	h0.7v-5.3h-0.7V32.1z"/>
<path class="st1" d="M28,32.1h2.9v5.5h0.7v0.2H28v-0.2h0.6v-5.3h-0.7L28,32.1z M29.8,31.3c-0.3,0-0.7-0.1-0.9-0.3
	c-0.2-0.2-0.3-0.5-0.3-0.8s0.1-0.6,0.3-0.8c0.2-0.2,0.6-0.3,0.9-0.3s0.7,0.1,0.9,0.3c0.2,0.2,0.3,0.5,0.3,0.8s-0.1,0.6-0.3,0.8
	C30.5,31.2,30.1,31.3,29.8,31.3L29.8,31.3z"/>
<path class="st1" d="M31.4,32.3v-0.2H35v0.2h-0.8l1.4,4l1.3-4h-0.8v-0.2h1.6v0.2h-0.5l-1.8,5.5H34l-2.2-5.5H31.4z"/>
<path class="st1" d="M40.4,35h0.4v-1c0-0.5,0-1-0.1-1.5c0-0.2-0.3-0.4-0.5-0.4c-0.1,0-0.3,0-0.4,0.1c-0.1,0.1-0.2,0.2-0.2,0.3
	s0,0.3,0.1,0.4H40c0.1,0.2,0.1,0.4,0.1,0.6c0,0.2-0.1,0.5-0.3,0.6c-0.2,0.2-0.5,0.3-0.8,0.3c-0.7,0-1-0.3-1-1c0-1,0.8-1.5,2.5-1.5
	c0.7-0.1,1.4,0.1,2,0.5c0.4,0.5,0.6,1.1,0.6,1.8v2.4c0,0.4,0.1,0.6,0.4,0.6s0.4-0.4,0.5-1.2l0,0c0,0.5-0.1,1-0.4,1.5
	c-0.3,0.3-0.7,0.4-1.1,0.4c-1,0-1.5-0.3-1.7-0.9c-0.1,0.3-0.2,0.5-0.5,0.7s-0.6,0.2-0.9,0.2c-1.2,0-1.8-0.5-1.8-1.5
	c0-0.5,0.2-1,0.7-1.2C39,35,39.7,34.9,40.4,35z M40,37.3c0,0.1,0.1,0.2,0.3,0.2c0.1,0,0.2-0.1,0.4-0.3c0.1-0.3,0.2-0.6,0.2-0.9v-1.1
	h-0.1c-0.5,0-0.7,0.4-0.7,1.1v0.2C39.9,36.7,39.9,37,40,37.3L40,37.3z"/>
<path class="st1" d="M44,28.8h3v8.8h0.7v0.2h-3.6v-0.2h0.7V29H44V28.8z"/>
</svg>
