<?xml version="1.0" encoding="utf-8"?>
<!-- Generator: Adobe Illustrator 21.0.0, SVG Export Plug-In . SVG Version: 6.00 Build 0)  -->
<svg version="1.1" id="Layer_1" xmlns="http://www.w3.org/2000/svg" xmlns:xlink="http://www.w3.org/1999/xlink" x="0px" y="0px"
	 viewBox="0 0 700 700" style="enable-background:new 0 0 700 700;" xml:space="preserve">
<style type="text/css">
	.st0{fill:#533879;stroke:#533879;stroke-width:5.0846;stroke-miterlimit:10;}
	.st1{fill:#533879;}
</style>
<g>
	<line class="st0" x1="75.9" y1="568.8" x2="274.9" y2="568.8"/>
</g>
<g>
	<path class="st1" d="M150,155l1.2,29h-2.1c-3.4-10.4-6.5-17.5-9.2-21.3c-2.7-3.8-6.5-5.7-11.5-5.7H127v77h10v2H95v-2h10v-77h-1.5
		c-5,0-8.9,2-11.6,5.9c-2.7,4-5.8,11-9,21.1h-2.1l1.2-29H150z"/>
	<path class="st1" d="M157,149h28v43c1.3-3.6,3.2-6.5,5.8-8.7c2.6-2.2,6.6-3.3,11.8-3.3c12.2,0,18.4,6.5,18.4,19.6V235h7v2h-33v-2h4
		v-38.1c0-4.7-0.3-7.7-0.9-9.1c-0.6-1.4-1.8-2.1-3.4-2.1c-2.5,0-4.8,1.6-6.7,4.9c-1.9,3.3-2.9,7.3-2.9,12V235h6v2h-34v-2h6v-84h-6
		V149z"/>
	<path class="st1" d="M237.9,229.6c-5-5.2-7.6-12.4-7.6-21.7c0-9.3,2.8-16.4,8.5-21.3c5.7-4.9,12.9-7.4,21.7-7.4
		c17.8,0,26.3,8.9,25.6,26.8H253v4.6c0,7.7,1,13.5,2.9,17.4c2,3.9,5.4,5.9,10.2,5.9c9.1,0,15-4.9,17.8-14.6l2.1,0.4
		c-1.5,5.6-4.2,10-8,13.1c-3.9,3.1-9.7,4.7-17.4,4.7C250.5,237.5,243,234.9,237.9,229.6z M253,204h12v-5.8c0-6.3-0.4-10.7-1.1-13
		c-0.7-2.3-2.2-3.5-4.4-3.5c-2.2,0-3.8,1.2-4.9,3.7c-1,2.5-1.6,6.7-1.6,12.7V204z"/>
	<path class="st1" d="M159.2,334.6c0,16.1-4.5,27.3-13.6,33.6c-8.4,5.9-19.8,8.8-34.4,8.8H78v-2h8v-78h-8v-2h36.2
		c15,0,26.2,3.1,33.7,9.2C155.4,310.3,159.2,320.5,159.2,334.6z M109,375h4.5c8,0,13.8-2.8,17.3-8.4c3.5-5.6,5.2-15,5.2-28.2v-6.8
		c0-17.7-3.4-28.3-10.3-31.9c-3.3-1.7-7.9-2.6-13.9-2.6H109V375z"/>
	<path class="st1" d="M173.9,370.6c-5-5.2-7.6-12.4-7.6-21.7s2.8-16.4,8.5-21.3c5.7-4.9,12.9-7.4,21.7-7.4
		c17.8,0,26.3,8.9,25.6,26.8H189v4.6c0,7.7,1,13.5,2.9,17.4c2,3.9,5.4,5.9,10.2,5.9c9.1,0,15-4.9,17.8-14.6l2.1,0.4
		c-1.5,5.6-4.2,10-8,13.1c-3.9,3.1-9.7,4.7-17.4,4.7C186.5,378.5,179,375.9,173.9,370.6z M189,345h12v-5.8c0-6.3-0.4-10.7-1.1-13
		c-0.7-2.3-2.2-3.5-4.4-3.5c-2.2,0-3.8,1.2-4.9,3.7c-1,2.5-1.6,6.7-1.6,12.7V345z"/>
	<path class="st1" d="M264.3,327.6c-0.1-3.3-3-5.7-6.3-5.4c-3.1,0.2-5.4,2.1-6.7,5.6c-1.5,3.8-2.2,10-2.2,18.7v6.1
		c0,7.7,0.9,13.3,2.6,16.7c1.7,3.4,4.9,5,9.5,5c4.6,0,8.3-1.6,11-4.7c2.7-3.1,4.5-6.7,5.3-10.7l2.1,0.2c-1.5,6.7-4.2,11.6-8.2,14.6
		c-4.1,3.1-9.7,4.6-16.8,4.6c-9.1,0-16-2.4-20.9-7.3c-4.9-4.9-7.3-12-7.3-21.5c0-9.4,2.8-16.7,8.3-21.8c5.5-5.1,13.2-7.6,23.1-7.6
		c7,0,12.3,1.3,16,4c3.7,2.7,5.5,6.1,5.5,10.2c0,4.1-0.9,7-2.6,8.9c-1.8,1.9-4.2,2.8-7.3,2.8c-3.1,0-5.6-0.8-7.5-2.5
		c-1.9-1.6-2.8-4.1-2.8-7.3c0-1.4,0.2-2.8,0.6-4.2h3.9C264,330.4,264.3,328.9,264.3,327.6z"/>
	<path class="st1" d="M290.9,370.6c-5-5.2-7.6-12.4-7.6-21.7s2.8-16.4,8.5-21.3c5.7-4.9,12.9-7.4,21.7-7.4
		c17.8,0,26.3,8.9,25.6,26.8H306v4.6c0,7.7,1,13.5,2.9,17.4c2,3.9,5.4,5.9,10.2,5.9c9.1,0,15-4.9,17.8-14.6l2.1,0.4
		c-1.5,5.6-4.2,10-8,13.1c-3.9,3.1-9.7,4.7-17.4,4.7C303.5,378.5,296,375.9,290.9,370.6z M306,345h12v-5.8c0-6.3-0.4-10.7-1.1-13
		c-0.7-2.3-2.2-3.5-4.4-3.5c-2.2,0-3.8,1.2-4.9,3.7c-1,2.5-1.6,6.7-1.6,12.7V345z"/>
	<path class="st1" d="M344,321h28v10.8c2.6-8,8.3-12,17.2-12s14.2,4.2,16.1,12.7c2.8-8.5,8.5-12.7,17.4-12.7
		c11.6,0,17.4,6.6,17.4,19.7V375h6v2h-33v-2h5v-38.1c0-5.9-0.5-9.4-1.5-10.4c-0.5-0.5-1.1-0.7-1.9-0.7c-2.3,0-4.3,1.5-6,4.6
		c-1.7,3.1-2.6,6.9-2.6,11.6V375h4v2h-30v-2h4v-38.1c0-5.9-0.5-9.4-1.5-10.4c-0.5-0.5-1.1-0.7-1.9-0.7c-2.2,0-4.2,1.7-5.9,5
		c-1.8,3.3-2.6,7.3-2.6,11.9V375h4v2h-32v-2h6v-51h-6V321z"/>
	<path class="st1" d="M476,289v41.1c2.9-6.7,8-10.1,15.1-10.1c14.5,0,21.7,9.7,21.7,29.2c0,9.9-2,17.2-6,21.9c-4,4.7-10,7-18,7
		c-4,0-7.1-0.6-9.2-1.9c-2.1-1.3-3.6-3.3-4.4-6.2l-0.8,6.9H448v-2h6v-84h-6v-2H476z M489.8,329c-0.8-2.9-2.4-4.3-4.7-4.3
		c-2.3,0-4.4,1.5-6.3,4.4c-1.9,2.9-2.8,6.9-2.8,12v22.5c0,3.5,0.7,6.4,2.1,8.8c1.4,2.4,3.4,3.6,6,3.6c2.6,0,4.4-1.8,5.4-5.3
		c1-3.5,1.5-9.8,1.5-18.6v-6.3C491,337.4,490.6,331.9,489.8,329z"/>
	<path class="st1" d="M524.9,370.6c-5-5.2-7.6-12.4-7.6-21.7s2.8-16.4,8.5-21.3c5.7-4.9,12.9-7.4,21.7-7.4
		c17.8,0,26.3,8.9,25.6,26.8H540v4.6c0,7.7,1,13.5,2.9,17.4c2,3.9,5.4,5.9,10.2,5.9c9.1,0,15-4.9,17.8-14.6l2.1,0.4
		c-1.5,5.6-4.2,10-8,13.1c-3.9,3.1-9.7,4.7-17.4,4.7C537.5,378.5,530,375.9,524.9,370.6z M540,345h12v-5.8c0-6.3-0.4-10.7-1.1-13
		c-0.7-2.3-2.2-3.5-4.4-3.5c-2.2,0-3.8,1.2-4.9,3.7s-1.6,6.7-1.6,12.7V345z"/>
	<path class="st1" d="M616.8,325.2c-2.9,0-5.4,1.8-7.6,5.5c-2.2,3.6-3.3,8-3.3,13V375h8v2h-36v-1h6v-52h-6v-2h28v10.9
		c1-3.9,2.9-6.9,5.8-8.9c2.9-2.1,6.1-3.1,9.8-3.1c3.6,0,6.6,1,8.9,3c2.3,2,3.4,4.9,3.4,8.5c0,3.7-0.9,6.5-2.6,8.5
		c-1.7,2-4.3,3-7.8,3c-3.5,0-6.1-1.1-7.8-3.4c-1.7-2.3-1.9-5.4-0.6-9.5h4.2C621.2,327.1,620.4,325.2,616.8,325.2z"/>
	<path class="st1" d="M122.9,437c-11.9,0-17.9,11.5-17.9,34.4v10.1c0,11,1.6,19.7,4.8,25.9c3.2,6.3,7.9,9.4,14.1,9.4
		c8.5,0,16.4-8.3,23.6-25h2.1l-0.8,26h-1.3c-0.5-0.9-0.9-1.5-1.3-1.8c-0.4-0.4-1-0.5-1.7-0.5c-0.7,0-3.6,0.6-8.5,1.8
		s-9.9,1.8-15,1.8c-12.7,0-22.6-3.4-29.6-10.3c-7-6.9-10.5-17.2-10.5-31c0-13.8,3.7-24.5,11-32c7.3-7.5,17.1-11.3,29.5-11.3
		c4.8,0,9.4,0.6,14,1.8c4.6,1.2,7.3,1.8,8,1.8c0.8,0,1.4-0.2,1.8-0.5c0.4-0.4,0.8-1,1.3-1.8h0.8l0.9,25H146
		c-3.5-7.8-7-13.7-10.7-17.8C131.7,439.1,127.5,437,122.9,437z"/>
	<path class="st1" d="M186.6,491h3.4v-9.2c0-7.5-0.4-12.6-1.2-15.2c-0.8-2.6-2.4-3.9-4.8-3.9c-1.4,0-2.7,0.4-3.8,1.1
		c-1.1,0.8-1.7,1.8-1.7,3.1c0,1.3,0.2,2.6,0.7,4h3c0.6,1.7,0.9,3.7,0.9,6c0,2.3-1,4.4-3,6.1c-2,1.7-4.5,2.6-7.5,2.6
		c-6.8,0-10.2-3.3-10.2-9.9c0-9.8,8.2-14.6,24.7-14.6c9.4,0,15.9,1.6,19.5,4.8c3.6,3.2,5.4,9.1,5.4,17.7v24.2c0,4.1,1.1,6.2,3.4,6.2
		c2.7,0,4.3-4.1,4.7-12.3l1.8,0.1c-0.3,7-1.6,11.8-3.9,14.4c-2.3,2.6-6,3.9-11.2,3.9c-9.5,0-14.9-2.9-16.3-8.8c-1,3-2.6,5.2-4.6,6.7
		c-2.1,1.4-5,2.1-9,2.1c-11.7,0-17.5-4.8-17.5-14.4c0-5.6,2.2-9.5,6.7-11.6C170.5,492.1,177.3,491,186.6,491z M182.6,513.4
		c0.4,1.2,1.2,1.8,2.4,1.8c1.2,0,2.3-1,3.4-3c1-2,1.6-4.8,1.6-8.3V493h-0.8c-4.8,0-7.2,3.6-7.2,10.7v1.9
		C182,509.6,182.2,512.2,182.6,513.4z"/>
	<path class="st1" d="M262.2,466.2c-3,0-5.6,1.8-7.8,5.5c-2.2,3.6-3.4,8-3.4,13V516h8v2h-37v-2h7v-52h-7v-1h29v10.9
		c1-3.9,3-6.9,6-8.9c3-2.1,6.3-3.1,10.1-3.1c3.8,0,6.8,1,9.2,3c2.4,2,3.5,4.9,3.5,8.5c0,3.7-0.9,6.5-2.6,8.5c-1.8,2-4.5,3-8.1,3
		c-3.7,0-6.3-1.1-8.1-3.4c-1.7-2.3-1.9-5.4-0.7-9.5h4.3C266.7,468.1,265.9,466.2,262.2,466.2z"/>
	<path class="st1" d="M281,462h28v10.8c1.3-3.6,3.2-6.5,5.8-8.7c2.6-2.2,6.6-3.3,11.8-3.3c12.2,0,18.4,6.6,18.4,19.7V516h6v2h-33v-2
		h5v-38.1c0-4.7-0.3-7.7-0.9-9.1c-0.6-1.4-1.8-2.1-3.4-2.1c-2.5,0-4.8,1.6-6.7,4.9c-1.9,3.3-2.9,7.3-2.9,12V516h5v2h-33v-2h6v-52h-6
		V462z"/>
	<path class="st1" d="M352,462h29v54h7v2h-35v-2h6v-52h-7V462z M370.1,454.3c-4.1,0-7.1-1.1-8.9-3.2c-1.8-2.1-2.6-4.7-2.6-7.9
		c0-3.1,1-5.7,2.9-7.7c1.9-2,4.8-3.1,8.7-3.1c3.9,0,6.9,0.9,8.9,2.8c2,1.8,3.1,4.5,3.1,7.9c0,3.4-1,6.1-2.9,8.2
		C377.3,453.3,374.3,454.3,370.1,454.3z"/>
	<path class="st1" d="M386,464v-2h34v2h-7.1l14.2,36.9l12.8-36.9H432v-2h16v2h-5.1l-17.2,54h-13.3l-21.6-54H386z"/>
	<path class="st1" d="M473.6,491h3.4v-9.2c0-7.5-0.4-12.6-1.2-15.2c-0.8-2.6-2.4-3.9-4.8-3.9c-1.4,0-2.7,0.4-3.8,1.1
		c-1.1,0.8-1.7,1.8-1.7,3.1c0,1.3,0.2,2.6,0.7,4h3c0.6,1.7,0.9,3.7,0.9,6c0,2.3-1,4.4-3,6.1c-2,1.7-4.5,2.6-7.5,2.6
		c-6.8,0-10.2-3.3-10.2-9.9c0-9.8,8.2-14.6,24.7-14.6c9.4,0,15.9,1.6,19.5,4.8c3.6,3.2,5.4,9.1,5.4,17.7v24.2c0,4.1,1.1,6.2,3.4,6.2
		c2.7,0,4.3-4.1,4.7-12.3l1.8,0.1c-0.3,7-1.6,11.8-3.9,14.4c-2.3,2.6-6,3.9-11.2,3.9c-9.5,0-14.9-2.9-16.3-8.8c-1,3-2.6,5.2-4.6,6.7
		c-2.1,1.4-5,2.1-9,2.1c-11.7,0-17.5-4.8-17.5-14.4c0-5.6,2.2-9.5,6.7-11.6C457.5,492.1,464.3,491,473.6,491z M469.6,513.4
		c0.4,1.2,1.2,1.8,2.4,1.8c1.2,0,2.3-1,3.4-3c1-2,1.6-4.8,1.6-8.3V493h-0.8c-4.8,0-7.2,3.6-7.2,10.7v1.9
		C469,509.6,469.2,512.2,469.6,513.4z"/>
	<path class="st1" d="M509,430h29v86h7v2h-35v-2h6v-84h-7V430z"/>
</g>
<g>
</g>
<g>
</g>
<g>
</g>
<g>
</g>
<g>
</g>
</svg>
