<?xml version="1.0" standalone="no"?>
<!DOCTYPE svg PUBLIC "-//W3C//DTD SVG 20010904//EN"
 "http://www.w3.org/TR/2001/REC-SVG-20010904/DTD/svg10.dtd">
<svg version="1.0" xmlns="http://www.w3.org/2000/svg"
 width="2326.000000pt" height="2326.000000pt" viewBox="0 0 2326.000000 2326.000000"
 preserveAspectRatio="xMidYMid meet">
<metadata>
Created by potrace 1.11, written by Peter Selinger 2001-2013
</metadata>
<g transform="translate(0.000000,2326.000000) scale(0.100000,-0.100000)"
fill="#000000" stroke="none">
<path d="M3408 20422 c-25 -3 -28 -7 -28 -43 0 -34 3 -39 23 -40 12 0 67 -2
122 -2 l100 -2 3 -1747 2 -1748 -125 0 -125 0 0 -43 0 -42 708 0 707 0 3 43 3
42 -126 0 -125 0 1 733 c0 402 5 759 10 792 28 180 121 376 216 454 82 68 179
89 245 55 54 -28 64 -46 95 -164 4 -14 9 -440 10 -947 l4 -923 -84 0 -83 0 2
-37 c1 -21 2 -40 3 -43 1 -3 308 -5 684 -5 l682 0 3 43 3 42 -145 0 -146 0 -1
788 c0 433 -2 801 -4 817 -12 92 -18 127 -36 194 -61 227 -202 380 -411 446
-108 34 -153 40 -318 40 -224 0 -340 -27 -456 -106 -99 -68 -218 -224 -262
-344 -8 -22 -11 209 -11 858 -1 488 -4 887 -8 888 -24 3 -1113 3 -1135 1z"/>
<path d="M283 20172 c-28 -3 -33 -7 -34 -30 -1 -15 -3 -52 -4 -82 -1 -30 -6
-138 -9 -240 -4 -102 -9 -223 -11 -270 -6 -136 -16 -376 -20 -488 l-3 -103 45
3 45 3 58 165 c135 389 268 665 374 779 38 40 118 100 166 123 80 38 141 50
255 52 l70 1 0 -1602 0 -1603 -206 0 -207 0 -4 -30 c-3 -16 -1 -35 3 -42 7
-10 185 -13 879 -13 l870 0 0 42 0 43 -209 0 -209 0 2 1603 1 1602 60 -1 c217
-2 367 -79 482 -249 60 -90 132 -234 197 -396 32 -79 62 -153 67 -164 4 -11
24 -67 44 -125 71 -206 60 -187 111 -188 l45 -1 -5 127 c-6 141 -14 323 -21
512 -4 109 -9 216 -19 470 -2 36 -4 74 -5 85 -1 20 -8 20 -1389 20 -763 0
-1402 -1 -1419 -3z"/>
<path d="M7647 19164 c-1 -1 -40 -4 -87 -8 -111 -8 -172 -17 -266 -40 -197
-49 -392 -156 -543 -300 -207 -199 -313 -485 -314 -851 -1 -521 200 -903 572
-1090 74 -37 223 -90 282 -100 68 -11 104 -18 124 -22 135 -27 493 -20 635 13
14 3 36 8 49 10 40 8 144 46 196 72 193 96 357 296 437 532 36 106 39 98 -44
115 -10 2 -18 -2 -18 -7 0 -6 -16 -51 -36 -101 -133 -333 -363 -495 -700 -495
-156 0 -270 43 -354 134 -44 49 -110 166 -110 196 0 8 -4 18 -8 24 -8 9 -28
81 -38 139 -2 17 -7 37 -9 45 -2 8 -7 35 -10 60 -3 25 -8 63 -11 85 -2 22 -7
137 -9 255 l-4 215 690 0 c606 0 689 2 690 15 6 97 -5 282 -21 355 -5 22 -11
53 -14 69 -8 47 -57 176 -84 226 -97 176 -232 292 -427 368 -84 33 -134 47
-199 58 -21 3 -48 8 -60 10 -34 7 -303 22 -309 18z m85 -128 c63 -27 107 -108
123 -226 4 -25 8 -56 11 -70 2 -14 7 -157 10 -317 l7 -293 -251 0 -251 0 4
238 c3 233 6 278 26 396 22 127 78 229 146 265 46 24 126 27 175 7z"/>
<path d="M15504 14550 c0 -22 3 -41 6 -41 3 -1 57 -3 120 -4 63 -1 117 -3 120
-4 4 -1 5 -3474 1 -3491 0 -3 -56 -5 -123 -5 l-122 0 -1 -40 0 -40 552 -3 551
-2 6 27 c7 34 23 182 26 228 0 11 15 -10 34 -50 54 -114 135 -184 256 -219 86
-25 143 -31 305 -30 499 2 802 231 920 694 14 55 20 90 31 165 3 22 8 51 11
65 2 14 6 122 8 240 4 298 -22 504 -87 690 -33 95 -103 230 -144 275 -14 17
-36 41 -48 55 -75 88 -226 177 -351 207 -150 35 -355 39 -470 8 -124 -33 -231
-102 -313 -200 -43 -51 -54 -68 -87 -133 -10 -18 -20 -34 -24 -36 -3 -2 -6
376 -6 840 l0 844 -586 0 -585 0 0 -40z m1655 -1487 c59 -47 95 -139 116 -300
27 -199 26 -1150 0 -1353 -3 -19 -7 -53 -10 -76 -2 -23 -9 -63 -15 -90 -41
-184 -99 -257 -221 -278 -62 -10 -175 34 -221 88 -59 68 -114 204 -125 309 -4
34 -7 319 -7 632 1 547 1 574 22 675 44 211 160 379 288 420 53 17 133 4 173
-27z"/>
<path d="M90 14298 l0 -44 161 1 c88 0 163 -3 166 -8 8 -12 8 -3221 0 -3233
-3 -5 -77 -9 -166 -9 l-161 1 0 -44 0 -43 848 4 c466 3 863 7 882 10 19 3 64
8 100 12 36 4 67 8 70 10 3 1 32 6 65 10 32 3 62 8 65 10 3 2 23 6 44 9 191
30 470 134 646 240 346 209 546 522 624 976 14 81 17 104 31 245 13 126 6 525
-10 585 -2 8 -7 38 -10 65 -9 80 -64 293 -96 373 -141 354 -373 573 -769 725
-56 21 -90 32 -170 53 -8 2 -67 15 -130 29 -112 24 -133 28 -250 40 -30 3 -66
9 -80 12 -14 3 -438 8 -942 10 l-918 5 0 -44z m1595 -52 c269 -23 456 -105
564 -248 111 -148 196 -395 226 -658 3 -30 8 -66 10 -80 16 -108 25 -675 15
-970 -4 -136 -33 -400 -50 -470 -5 -19 -11 -46 -14 -60 -29 -167 -111 -364
-195 -469 -120 -153 -319 -257 -528 -276 -95 -9 -311 -13 -321 -6 -8 5 -14
3228 -6 3242 4 6 197 3 299 -5z"/>
<path d="M12977 13304 c-1 -1 -27 -4 -57 -7 -243 -27 -434 -164 -540 -388 -16
-35 -31 -71 -32 -79 -1 -8 -5 84 -8 205 l-5 220 -580 0 -580 0 -3 -62 -3 -63
126 0 c112 0 125 -2 126 -17 5 -116 0 -2095 -5 -2101 -4 -4 -60 -7 -124 -7
l-117 0 -3 -43 -3 -42 670 0 671 0 0 40 c0 25 -5 41 -12 41 -7 1 -44 2 -83 3
l-70 1 -2 725 c-1 765 1 812 45 960 65 214 174 351 293 365 92 11 126 -40 148
-215 5 -41 9 -471 10 -955 l2 -880 -73 0 c-40 1 -79 -1 -85 -3 -8 -2 -13 -21
-13 -43 l0 -39 628 0 627 0 0 43 0 42 -83 0 c-66 0 -82 2 -83 15 -5 82 0 1451
5 1500 25 240 133 454 261 514 113 54 188 11 209 -119 3 -16 8 -50 12 -75 7
-45 13 -1791 6 -1820 -3 -13 -21 -16 -100 -15 -96 1 -97 0 -102 -25 -4 -14 -4
-33 -2 -43 4 -16 43 -17 691 -15 l686 3 0 40 -1 40 -124 0 -125 0 -1 800 c-1
767 -3 844 -24 954 -42 220 -162 391 -332 471 -118 55 -205 73 -358 73 -157 1
-241 -16 -359 -69 -168 -77 -281 -210 -366 -429 -6 -16 -11 -8 -25 40 -33 114
-100 228 -180 304 -71 67 -214 131 -330 147 -48 6 -218 12 -223 8z"/>
<path d="M7385 13289 c-339 -33 -604 -145 -796 -338 -161 -162 -251 -345 -298
-607 -15 -84 -18 -143 -16 -302 2 -108 6 -213 10 -232 3 -19 8 -44 10 -55 60
-323 197 -549 423 -698 105 -69 255 -132 367 -153 22 -4 49 -9 60 -11 85 -16
164 -21 315 -21 194 1 329 22 469 73 278 101 449 306 540 648 11 39 19 72 18
73 -1 1 -22 4 -45 6 l-44 3 -24 -83 c-63 -216 -211 -414 -370 -492 -136 -67
-333 -81 -466 -34 -145 51 -228 157 -273 349 -17 72 -33 185 -41 290 -13 173
-6 790 10 915 2 14 7 49 11 79 43 333 164 503 360 504 106 0 204 -67 233 -159
20 -66 -3 -242 -32 -245 -6 0 -43 -1 -83 -1 -69 0 -71 0 -78 -26 -13 -48 -15
-223 -3 -271 14 -60 50 -128 88 -169 40 -43 134 -91 208 -107 60 -12 180 -13
237 0 99 21 202 101 243 189 56 118 70 315 32 438 -66 214 -299 381 -587 423
-23 3 -57 8 -75 11 -59 9 -321 10 -403 3z"/>
<path d="M4888 13285 c-2 -2 -34 -6 -73 -10 -38 -4 -72 -8 -75 -10 -3 -2 -21
-6 -40 -9 -79 -12 -221 -60 -315 -105 -222 -108 -407 -287 -497 -481 -35 -76
-74 -190 -83 -240 -3 -19 -8 -42 -11 -51 -18 -61 -26 -398 -12 -511 69 -535
385 -887 878 -974 14 -3 50 -9 80 -15 70 -14 413 -20 505 -9 187 22 333 67
440 134 173 108 309 289 384 513 27 80 27 93 -1 93 -13 0 -32 3 -44 6 -17 5
-22 -1 -33 -38 -22 -75 -84 -203 -131 -273 -28 -40 -112 -127 -160 -164 -90
-69 -253 -120 -395 -125 -253 -7 -409 89 -493 304 -22 57 -48 146 -56 190 -10
58 -16 97 -21 125 -9 52 -18 234 -19 385 l-1 145 692 3 692 2 -4 128 c-4 126
-6 150 -26 267 -39 223 -172 435 -346 551 -111 74 -301 140 -458 159 -58 7
-371 15 -377 10z m200 -139 c93 -58 120 -201 126 -673 1 -111 0 -206 -3 -211
-5 -6 -464 -9 -492 -3 -7 1 -3 368 5 471 16 198 57 330 124 393 63 60 166 70
240 23z"/>
<path d="M9779 13286 c-2 -2 -38 -7 -79 -10 -280 -26 -554 -151 -745 -341
-145 -144 -229 -302 -279 -525 -44 -194 -40 -484 9 -696 112 -492 460 -788
988 -842 143 -14 527 -5 558 14 4 2 24 6 45 10 62 9 199 60 268 98 132 74 272
232 349 396 35 75 82 208 76 215 -5 3 -89 15 -89 12 0 -8 -52 -141 -71 -182
-110 -237 -307 -384 -549 -412 -301 -35 -478 57 -573 297 -37 95 -57 180 -82
360 -3 19 -8 137 -11 263 l-7 227 692 0 691 0 1 48 c2 127 -2 177 -22 312 -43
287 -199 514 -435 633 -102 51 -231 92 -324 103 -19 2 -46 7 -60 10 -26 6
-345 15 -351 10z m169 -130 c107 -55 135 -191 136 -651 l1 -250 -238 0 c-131
0 -243 3 -249 6 -11 7 -4 458 8 549 26 198 90 322 186 356 42 15 116 11 156
-10z"/>
<path d="M19498 13285 c-2 -2 -25 -5 -53 -9 -199 -25 -367 -80 -520 -170 -282
-167 -446 -408 -510 -746 -26 -136 -23 -435 5 -580 13 -70 48 -199 60 -225 5
-11 22 -50 39 -87 45 -102 113 -201 199 -287 168 -169 346 -250 672 -306 62
-11 412 -14 490 -4 329 40 542 162 693 395 71 110 158 318 140 335 -5 4 -25 9
-46 11 l-37 3 -24 -68 c-86 -242 -234 -410 -423 -480 -106 -39 -171 -50 -288
-50 -131 0 -196 17 -281 72 -134 85 -208 244 -249 526 -4 22 -8 51 -11 65 -2
14 -7 130 -10 258 l-7 232 692 0 691 0 1 33 c3 86 -5 233 -15 287 -1 8 -7 38
-11 65 -5 28 -9 52 -10 55 -1 3 -9 31 -19 63 -63 213 -199 384 -381 480 -62
32 -165 77 -165 72 0 -3 -12 0 -27 6 -16 6 -37 13 -48 15 -74 15 -125 24 -160
30 -39 6 -381 14 -387 9z m221 -143 c88 -71 112 -199 114 -607 l2 -280 -249 0
-248 0 6 255 c3 140 8 273 11 295 37 265 121 380 274 370 41 -3 63 -11 90 -33z"/>
<path d="M22738 13265 c-1 -2 -28 -4 -58 -6 -30 -1 -86 -11 -124 -21 -211 -57
-367 -200 -442 -402 l-23 -61 0 220 -1 220 -582 0 -583 0 -1 -42 -1 -43 123 0
124 0 1 -27 c0 -16 1 -502 2 -1080 2 -930 0 -1053 -13 -1054 -8 -1 -64 -2
-125 -3 -106 -1 -110 -2 -113 -24 l-3 -22 753 2 753 3 0 40 0 40 -155 1 c-85
1 -161 2 -168 3 -11 1 -12 138 -9 739 2 405 6 748 10 762 4 14 16 61 27 105
28 111 108 267 174 340 55 62 125 107 185 120 56 12 136 -3 167 -31 25 -24 26
-30 21 -83 -2 -32 -12 -72 -21 -89 l-17 -32 -88 0 -88 0 -12 -55 c-48 -212 10
-368 164 -440 73 -35 129 -44 230 -41 99 4 162 21 230 60 70 42 143 152 160
243 3 16 7 39 10 53 7 37 8 190 1 228 -11 55 -44 133 -77 181 -48 70 -160 148
-240 167 -19 4 -41 9 -49 11 -8 2 -37 6 -65 9 -27 3 -55 7 -62 9 -6 2 -13 2
-15 0z"/>
<path d="M18048 8695 c-2 -11 -2 -30 0 -42 4 -23 7 -23 148 -23 l144 0 0
-1750 0 -1750 -125 0 -125 0 0 -43 0 -42 730 0 730 0 0 42 0 42 -146 3 -147 3
0 1790 0 1790 -603 0 c-596 0 -603 0 -606 -20z"/>
<path d="M12155 8604 c-98 -23 -148 -41 -192 -71 -82 -54 -150 -159 -171 -267
-9 -44 -8 -190 1 -226 2 -8 7 -28 12 -45 16 -60 70 -147 121 -194 75 -68 187
-102 339 -102 318 1 489 153 501 446 9 242 -108 400 -335 451 -34 8 -250 14
-276 8z"/>
<path d="M1738 8515 c-3 -2 -127 -16 -158 -17 -39 -1 -246 -50 -331 -78 -380
-127 -696 -411 -867 -780 -66 -142 -128 -352 -147 -495 -4 -27 -9 -61 -11 -75
-27 -160 -24 -561 5 -755 22 -146 71 -339 108 -425 112 -261 239 -431 431
-577 31 -23 62 -46 67 -51 30 -23 161 -93 235 -124 92 -39 222 -80 310 -97 30
-6 66 -14 80 -16 27 -5 69 -11 190 -25 77 -8 428 -6 490 4 19 3 58 8 85 11 47
6 176 29 220 39 43 10 291 68 310 73 11 2 44 8 73 12 60 9 98 -8 128 -56 10
-15 19 -30 21 -32 5 -7 53 -9 57 -2 3 4 8 99 11 212 3 112 8 251 10 309 2 58
7 207 11 333 l6 227 -45 0 c-44 0 -45 0 -71 -55 -14 -31 -26 -58 -26 -60 0 -7
-63 -132 -110 -220 -221 -408 -469 -648 -720 -693 -53 -10 -180 -9 -229 2
-174 39 -299 129 -406 295 -87 134 -174 377 -201 561 -3 19 -7 42 -9 50 -2 8
-7 42 -10 75 -4 33 -8 71 -11 85 -24 147 -23 1080 1 1231 2 13 6 49 10 79 3
30 8 73 11 95 22 182 105 426 189 555 129 201 301 293 535 285 336 -11 601
-275 895 -892 l49 -103 44 0 44 0 -7 178 c-4 97 -8 222 -10 277 -5 166 -17
467 -20 515 -2 25 -3 53 -4 63 -2 30 -34 15 -63 -30 -16 -25 -38 -45 -53 -49
-42 -10 -121 2 -289 45 -172 45 -270 66 -356 76 -30 4 -64 9 -75 12 -23 5
-392 13 -397 8z"/>
<path d="M10236 7413 c-213 -38 -376 -166 -474 -374 -20 -43 -39 -79 -42 -79
-3 0 -5 93 -5 208 l0 207 -582 3 -583 2 0 -43 0 -43 120 1 c101 1 121 -1 124
-14 2 -9 4 -496 3 -1083 l0 -1068 -124 0 -123 0 0 -43 0 -42 683 1 c375 1 684
2 687 3 3 0 6 19 6 41 l0 40 -102 0 c-73 0 -103 4 -106 13 -7 21 -1 1440 6
1487 42 262 148 455 290 527 90 46 194 25 235 -46 44 -80 47 -156 48 -1123 l0
-858 -103 0 -104 0 0 -43 0 -42 687 0 687 0 2 43 2 42 -124 0 c-68 0 -125 3
-125 8 -1 4 -2 369 -4 812 -1 443 -5 825 -9 850 -55 355 -234 554 -550 613
-101 18 -318 19 -420 0z"/>
<path d="M4468 7415 c-2 -1 -42 -5 -89 -9 -47 -4 -95 -8 -106 -10 -11 -3 -36
-7 -54 -10 -124 -20 -269 -70 -358 -124 -170 -103 -252 -254 -252 -462 0 -257
132 -395 386 -404 162 -6 270 31 364 122 82 81 104 133 105 252 0 99 -19 216
-38 227 -6 4 -35 8 -63 8 -29 1 -56 4 -59 8 -12 12 -32 139 -28 176 14 116
196 194 318 136 91 -44 131 -153 152 -425 12 -150 11 -719 0 -723 -6 -3 -87
-5 -181 -6 -169 -2 -272 -6 -330 -15 -16 -3 -57 -8 -90 -11 -33 -4 -76 -10
-95 -15 -19 -5 -49 -12 -66 -14 -60 -11 -169 -48 -233 -79 -118 -58 -197 -148
-243 -275 -26 -74 -33 -276 -13 -371 51 -231 218 -375 485 -417 157 -25 331
-23 454 5 131 31 240 121 305 254 l38 77 18 -47 c29 -78 90 -150 169 -200 42
-27 148 -69 193 -78 15 -3 39 -7 53 -10 107 -21 330 -24 426 -6 276 55 395
214 439 590 14 116 15 161 2 162 -7 1 -24 2 -39 3 -26 3 -28 0 -29 -33 0 -48
-8 -115 -20 -177 -5 -28 -12 -63 -15 -78 -22 -123 -87 -219 -148 -219 -46 1
-56 4 -85 29 -63 53 -64 68 -66 759 -2 625 -4 690 -31 824 -58 286 -187 439
-434 517 -65 20 -156 41 -220 49 -30 4 -64 9 -75 12 -22 5 -442 13 -447 8z
m287 -1585 c1 -140 -5 -295 -11 -345 -29 -229 -146 -368 -251 -300 -53 35 -66
116 -66 400 0 138 4 197 17 252 41 164 135 249 276 248 l35 0 0 -255z"/>
<path d="M16448 7416 c-1 -2 -46 -6 -98 -10 -52 -3 -106 -8 -120 -11 -14 -3
-41 -7 -60 -10 -131 -17 -338 -103 -426 -177 -123 -103 -189 -266 -178 -438
17 -245 144 -365 396 -374 154 -6 270 35 360 125 64 64 100 142 103 222 2 73
-21 237 -35 251 -6 6 -36 11 -68 11 l-57 0 -13 39 c-16 51 -22 143 -10 177 24
69 136 129 228 123 61 -4 122 -34 150 -75 26 -36 57 -128 65 -196 4 -27 8 -59
11 -73 10 -60 17 -275 18 -540 l1 -285 -85 -1 c-305 -5 -417 -11 -527 -29 -18
-3 -50 -8 -70 -11 -21 -3 -46 -7 -55 -10 -9 -3 -26 -7 -39 -9 -43 -8 -134 -36
-166 -51 -17 -8 -35 -14 -40 -14 -19 0 -135 -81 -169 -118 -79 -86 -125 -220
-126 -366 0 -157 24 -250 97 -371 29 -49 125 -125 200 -160 148 -69 367 -95
580 -71 180 22 310 116 391 283 18 37 33 62 33 54 2 -32 59 -129 101 -172 120
-121 305 -175 590 -171 266 3 429 84 513 254 36 72 69 186 82 278 3 25 8 59
11 75 2 17 6 58 8 93 4 53 3 62 -12 63 -9 1 -27 3 -39 4 -18 2 -23 -3 -24 -24
-3 -78 -19 -193 -39 -274 -23 -91 -62 -170 -97 -193 -51 -33 -127 -14 -158 39
-40 67 -42 111 -42 722 -1 603 -3 666 -28 816 -61 353 -254 527 -650 584 -22
3 -56 8 -75 11 -39 5 -426 14 -432 10z m266 -1608 c-2 -281 -4 -317 -25 -406
-27 -110 -110 -231 -161 -233 -120 -6 -141 51 -142 391 -1 242 14 328 76 418
49 71 122 107 223 111 l31 1 -2 -282z"/>
<path d="M7830 7375 c-246 -51 -423 -195 -505 -409 l-24 -61 -1 218 0 217
-605 0 -605 0 0 -23 c0 -23 0 -23 145 -22 l145 1 0 -1083 0 -1083 -145 0 -145
0 0 -43 0 -42 770 0 770 0 0 42 0 43 -165 0 -165 0 1 708 c0 402 5 733 10 767
36 224 137 428 260 525 139 110 339 94 339 -28 0 -47 -31 -130 -50 -135 -8 -2
-50 -3 -93 -2 l-78 1 -14 -50 c-8 -28 -17 -80 -19 -115 -15 -261 180 -406 496
-368 108 13 205 66 263 145 103 140 117 418 30 574 -33 59 -118 139 -183 172
-107 54 -305 78 -432 51z"/>
<path d="M11506 7343 c1 -21 2 -40 3 -43 0 -3 64 -6 141 -5 134 1 141 0 145
-20 2 -11 3 -498 3 -1082 l-1 -1063 -123 0 -122 0 -4 -35 c-2 -19 -2 -39 1
-43 4 -4 333 -8 732 -7 l726 0 2 42 2 42 -148 3 -148 3 0 1120 0 1120 -605 3
-606 2 2 -37z"/>
<path d="M12923 7338 l2 -43 99 0 99 0 14 -40 c7 -22 20 -53 27 -70 8 -16 98
-241 200 -500 103 -258 191 -479 196 -490 5 -11 41 -101 80 -200 39 -99 75
-189 80 -200 5 -11 41 -101 80 -200 39 -99 75 -189 80 -200 5 -11 37 -90 70
-175 34 -85 65 -160 68 -165 5 -7 106 -10 284 -10 l277 0 6 25 c5 22 110 352
152 480 31 94 95 295 97 305 1 6 33 105 70 220 37 116 101 316 143 445 41 129
84 264 96 300 12 36 22 67 22 70 1 7 83 261 109 340 l22 65 99 1 c55 1 103 2
108 3 4 0 7 19 7 41 l0 40 -336 0 -335 0 3 -42 3 -43 160 -1 c93 0 159 -4 158
-10 -1 -5 -17 -54 -36 -109 -20 -55 -97 -278 -172 -495 -76 -217 -166 -478
-202 -580 -35 -102 -73 -212 -83 -245 -11 -33 -23 -65 -28 -72 -7 -11 -582
1459 -586 1497 -1 12 22 14 142 15 l142 0 0 42 0 43 -709 0 -710 0 2 -42z"/>
<path d="M5 3030 c-1 -3 -2 -50 -1 -105 l1 -100 4145 0 4145 0 0 105 0 105
-4143 0 c-2279 0 -4145 -2 -4147 -5z"/>
</g>
</svg>
