<?xml version="1.0" standalone="no"?>
<!DOCTYPE svg PUBLIC "-//W3C//DTD SVG 20010904//EN"
 "http://www.w3.org/TR/2001/REC-SVG-20010904/DTD/svg10.dtd">
<svg version="1.0" xmlns="http://www.w3.org/2000/svg"
 width="570.000000pt" height="570.000000pt" viewBox="0 0 570.000000 570.000000"
 preserveAspectRatio="xMidYMid meet">
<metadata>
Created by potrace 1.11, written by Peter Selinger 2001-2013
</metadata>
<g transform="translate(0.000000,570.000000) scale(0.100000,-0.100000)"
fill="#000000" stroke="none">
<path d="M823 5038 c2 -7 17 -13 33 -13 l29 0 2 -432 2 -433 -22 -1 c-12 -1
-28 -1 -34 0 -7 1 -13 -5 -13 -14 0 -13 24 -15 175 -14 150 1 175 3 175 16 0
11 -7 14 -25 11 -18 -4 -25 -1 -26 11 0 9 -1 98 -1 199 0 174 1 186 24 230 30
58 70 82 98 57 16 -15 18 -37 19 -256 l2 -239 -26 0 c-15 0 -25 -6 -25 -14 0
-12 30 -14 175 -14 124 1 175 4 172 12 -2 6 -16 11 -30 11 -14 1 -29 3 -31 6
-3 3 -6 97 -6 209 -2 222 -9 262 -55 310 -33 35 -81 49 -153 45 -72 -3 -101
-17 -131 -61 -13 -19 -26 -32 -29 -29 -3 2 -5 97 -4 210 l0 205 -150 0 c-115
0 -149 -3 -145 -12z"/>
<path d="M29 4933 c0 -32 -3 -102 -6 -157 -4 -77 -2 -97 8 -94 15 5 18 11 59
112 49 123 92 166 164 166 21 0 21 0 19 -367 -2 -203 -3 -383 -3 -400 0 -33 0
-33 -50 -33 -36 0 -50 -4 -50 -14 0 -12 40 -14 225 -15 192 -1 225 1 225 13 0
11 -14 16 -52 18 l-53 3 0 398 0 397 23 0 c38 0 85 -27 109 -63 19 -28 67
-139 87 -199 3 -10 11 -18 19 -18 13 0 14 10 6 217 l-4 93 -362 0 -363 0 -1
-57z"/>
<path d="M1790 4714 c-95 -25 -164 -86 -194 -172 -22 -62 -16 -204 10 -262 49
-106 129 -152 271 -157 139 -4 208 27 257 117 29 53 32 70 14 70 -7 -1 -23
-23 -36 -50 -55 -116 -220 -135 -267 -30 -17 38 -22 65 -25 145 -4 78 -13 72
128 73 70 0 148 1 173 1 l46 1 -9 60 c-14 107 -47 157 -125 192 -58 25 -171
31 -243 12z m130 -29 c12 -14 29 -163 22 -197 -3 -14 -14 -17 -64 -16 l-60 2
4 86 c2 61 8 94 21 113 20 30 57 36 77 12z"/>
<path d="M3764 3581 c-12 -12 0 -21 29 -21 l32 0 0 -432 c0 -481 6 -433 -59
-437 -15 -1 -17 -4 -9 -12 7 -7 63 -12 147 -13 l136 -1 0 29 0 28 35 -31 c36
-31 54 -35 147 -33 61 1 136 40 166 85 40 60 52 119 49 235 -4 156 -40 229
-130 267 -81 34 -181 16 -225 -40 -11 -14 -22 -25 -24 -25 -2 0 -3 88 -3 196
0 107 -2 199 -5 203 -5 7 -278 10 -286 2z m408 -388 c22 -25 29 -77 29 -233 1
-191 -12 -253 -58 -265 -32 -8 -69 24 -81 69 -5 17 -8 103 -7 191 2 171 10
207 57 239 29 20 41 20 60 -1z"/>
<path d="M10 3518 c0 -4 0 -11 0 -15 1 -5 12 -7 25 -5 12 2 26 -2 30 -8 3 -6
6 -142 6 -303 0 -510 0 -498 -13 -496 -31 4 -59 -2 -53 -11 3 -5 44 -10 91
-10 49 0 84 4 84 10 0 9 -28 15 -57 11 -10 -2 -13 79 -13 375 0 208 2 375 4
373 2 -2 25 -44 51 -94 26 -49 64 -121 85 -160 44 -82 205 -386 245 -462 l27
-53 88 0 88 0 0 393 c0 215 1 403 1 416 1 19 5 23 26 19 14 -3 30 1 36 8 13
16 15 16 -79 18 -49 1 -77 -3 -84 -11 -8 -10 -7 -13 3 -14 8 -1 25 -2 38 -2
l23 -2 0 -275 c0 -151 -1 -279 -1 -285 -1 -10 -46 72 -206 380 -48 94 -94 179
-102 190 -12 19 -25 20 -178 20 -91 0 -165 -3 -165 -7z"/>
<path d="M1050 3258 c-52 -8 -117 -34 -150 -61 -64 -50 -100 -150 -95 -263 8
-179 114 -277 305 -277 196 -1 303 93 314 277 11 180 -70 303 -214 322 -68 9
-106 10 -160 2z m99 -35 c31 -26 40 -99 37 -306 -2 -160 -5 -181 -23 -205 -39
-53 -93 -36 -112 34 -12 44 -13 349 -2 411 14 75 55 102 100 66z"/>
<path d="M2275 3253 c-152 -35 -235 -154 -223 -322 13 -179 123 -275 313 -274
90 1 141 15 187 53 44 36 86 116 70 132 -8 8 -14 3 -22 -18 -17 -44 -57 -92
-92 -110 -37 -19 -114 -22 -146 -5 -39 21 -64 87 -70 184 l-5 87 29 1 c16 0
93 1 172 1 l142 -1 0 48 c0 174 -152 270 -355 224z m101 -21 c23 -15 32 -50
33 -134 l2 -88 -60 0 -61 0 0 66 c0 84 17 143 44 154 27 11 29 11 42 2z"/>
<path d="M3102 3258 c-53 -9 -100 -42 -118 -82 l-13 -31 -1 53 0 52 -150 0
c-93 0 -150 -4 -150 -10 0 -11 12 -13 48 -10 l22 1 0 -270 0 -271 -35 0 c-21
0 -35 -5 -35 -12 0 -10 23 -13 87 -11 49 1 128 2 176 2 66 1 88 4 84 14 -2 6
-14 11 -26 9 l-22 -4 3 209 c3 193 5 211 25 250 27 49 60 65 80 37 10 -14 13
-74 13 -257 0 -131 -4 -236 -8 -233 -11 6 -38 -11 -30 -19 12 -12 298 -9 310
3 12 12 2 17 -28 13 -8 -1 -11 57 -10 206 2 194 3 211 24 250 33 63 89 71 92
13 2 -21 2 -375 1 -428 -1 -34 -4 -42 -17 -40 -10 2 -19 -3 -21 -9 -4 -10 17
-13 79 -14 46 0 122 -1 171 -2 64 -2 87 1 87 11 0 7 -13 12 -33 12 l-34 0 -1
222 c-2 211 -3 225 -24 267 -29 55 -77 82 -147 83 -88 0 -132 -24 -177 -98
-11 -18 -12 -18 -22 6 -9 24 -58 80 -71 80 -3 1 -24 4 -46 8 -22 5 -59 5 -83
0z"/>
<path d="M4719 3255 c-163 -33 -242 -138 -235 -313 8 -188 114 -285 311 -285
90 0 141 15 188 54 37 31 77 94 77 124 0 27 -17 16 -35 -24 -24 -54 -64 -90
-116 -105 -24 -7 -48 -12 -54 -11 -30 3 -69 18 -83 32 -26 26 -49 109 -51 186
l-2 72 171 -1 c119 -1 170 2 171 10 8 80 -16 151 -66 201 -60 60 -164 83 -276
60z m92 -25 c16 0 27 -44 29 -111 4 -117 8 -109 -60 -109 l-60 0 0 63 c0 102
31 177 67 163 8 -3 19 -6 24 -6z"/>
<path d="M5570 3264 c-8 -2 -31 -5 -51 -8 -37 -7 -89 -47 -105 -81 -7 -16 -9
-10 -12 28 l-3 47 -151 0 c-126 0 -149 -2 -139 -14 6 -7 22 -11 36 -8 l25 4 0
-271 c0 -212 -3 -272 -12 -270 -35 4 -62 -1 -51 -12 10 -10 50 -12 261 -10 74
1 122 5 122 11 0 6 -21 10 -46 10 l-46 0 4 203 c3 190 5 205 27 247 13 25 31
50 40 57 20 15 67 17 76 3 8 -14 -4 -52 -15 -45 -33 21 -57 -42 -34 -91 23
-48 72 -62 142 -40 57 18 75 150 26 199 -26 27 -69 45 -94 41z"/>
<path d="M1413 3238 c2 -7 14 -12 26 -10 16 3 25 -4 35 -30 68 -170 120 -298
131 -323 7 -16 30 -71 50 -121 31 -79 39 -90 58 -88 12 1 46 3 75 3 38 1 52 5
52 15 0 8 32 113 71 233 39 120 78 239 86 266 9 26 20 47 27 46 26 -3 46 2 46
11 0 6 -35 10 -85 10 -64 0 -85 -3 -85 -13 0 -9 12 -12 39 -10 46 3 50 30 -29
-212 -29 -88 -55 -163 -59 -167 -4 -5 -13 9 -20 30 -7 20 -37 104 -67 185 -52
141 -57 169 -31 166 27 -3 47 2 47 11 0 6 -69 10 -186 10 -144 0 -185 -3 -181
-12z"/>
<path d="M4480 2110 c0 -9 28 -15 58 -11 16 2 14 39 16 -446 l1 -423 -32 0
c-22 0 -33 -5 -33 -14 0 -12 32 -14 180 -14 147 0 180 3 180 14 0 9 -11 14
-33 14 l-32 0 0 445 0 445 -152 0 c-95 0 -153 -4 -153 -10z"/>
<path d="M2972 2084 c-71 -36 -75 -155 -8 -199 36 -24 134 -17 163 11 51 48
46 148 -9 183 -34 21 -109 24 -146 5z"/>
<path d="M308 2055 c-133 -36 -235 -147 -269 -290 -11 -49 -15 -220 -5 -260
14 -63 21 -84 37 -117 41 -81 109 -139 204 -173 75 -26 230 -28 334 -4 58 13
88 16 95 9 21 -21 32 -9 33 38 0 26 2 85 3 131 2 54 -1 86 -8 89 -6 2 -27 -29
-48 -68 -92 -175 -195 -231 -302 -162 -65 42 -103 176 -104 371 -1 250 31 364
113 407 103 53 198 -3 284 -167 20 -39 41 -69 47 -67 7 3 10 35 8 89 -1 46 -3
104 -4 128 0 26 -6 46 -13 49 -7 2 -13 -2 -13 -8 0 -14 -70 -8 -130 9 -47 15
-204 12 -262 -4z"/>
<path d="M1004 1786 c-84 -20 -123 -59 -129 -125 -4 -47 20 -100 49 -106 73
-17 114 -8 146 32 30 38 23 128 -9 109 -6 -4 -13 4 -17 20 -9 36 24 69 60 60
40 -10 49 -40 50 -165 l1 -114 -25 -3 c-14 -1 -58 -5 -98 -8 -136 -10 -194
-59 -187 -158 5 -85 50 -125 150 -135 66 -7 119 10 147 47 l21 28 23 -27 c29
-35 97 -55 165 -49 83 8 123 50 135 142 9 59 -12 63 -21 4 -4 -24 -11 -51 -17
-60 -11 -22 -44 -24 -52 -3 -3 8 -6 90 -6 183 -3 287 -34 332 -240 338 -52 1
-118 -3 -146 -10z m151 -398 c-3 -107 -2 -102 -22 -124 -25 -27 -53 -19 -54
14 -5 143 11 191 62 192 15 0 17 -11 14 -82z"/>
<path d="M1883 1781 c-24 -11 -51 -34 -63 -53 l-20 -33 -1 30 c-1 17 -1 37 0
47 2 14 -15 16 -149 16 -127 1 -150 -2 -150 -14 0 -9 8 -14 18 -13 52 5 49 19
49 -262 0 -257 0 -261 -21 -268 -11 -5 -27 -6 -33 -4 -7 3 -13 -2 -13 -10 0
-13 27 -15 190 -15 153 1 190 3 190 14 0 10 -13 14 -40 14 -22 0 -40 3 -41 8
0 4 0 91 -1 193 0 167 2 190 20 230 31 65 47 81 84 82 29 2 33 -1 33 -23 0
-18 -7 -26 -25 -30 -47 -11 -35 -105 16 -129 55 -25 130 -4 151 41 6 13 10 47
9 76 -1 44 -6 57 -33 83 -41 41 -108 49 -170 20z"/>
<path d="M2515 1793 c-32 -9 -76 -43 -96 -77 l-19 -31 1 35 c3 75 15 70 -152
69 -109 -1 -149 -4 -146 -12 4 -12 8 -13 47 -16 19 -1 20 -8 20 -265 l0 -265
-32 -3 c-18 -2 -33 -7 -33 -13 0 -6 63 -10 170 -10 105 0 171 4 173 10 2 6 -7
12 -20 15 l-23 6 0 199 c1 175 3 204 19 235 31 57 74 80 101 53 18 -17 17 -9
19 -278 l1 -210 -24 -5 c-14 -3 -24 -9 -23 -15 1 -6 67 -10 172 -10 105 0 171
4 173 10 1 6 -14 11 -34 13 l-37 3 -1 220 c0 210 -2 223 -23 262 -31 55 -75
79 -151 83 -34 1 -71 0 -82 -3z"/>
<path d="M4025 1795 c-5 -2 -29 -9 -52 -15 -87 -22 -136 -116 -99 -188 24 -47
100 -62 158 -31 50 27 61 109 19 138 -45 30 -5 93 48 76 32 -10 42 -47 47
-171 l5 -111 -73 -2 c-89 -2 -152 -16 -195 -42 -78 -48 -65 -196 21 -237 71
-35 189 -22 225 25 l21 26 26 -27 c34 -33 72 -44 149 -42 96 2 140 44 150 147
4 47 -16 50 -22 3 -6 -49 -24 -84 -44 -84 -28 0 -32 31 -34 221 -1 159 -4 180
-24 222 -33 67 -84 90 -215 93 -56 1 -105 1 -111 -1z m121 -415 c-4 -85 -22
-140 -44 -140 -27 1 -35 22 -35 99 1 72 3 85 24 107 12 13 31 24 41 24 18 0
19 -7 14 -90z"/>
<path d="M2850 1775 c0 -9 11 -13 30 -13 17 1 33 -2 37 -5 4 -5 8 -422 4 -518
-1 -12 -9 -14 -31 -11 -22 3 -30 0 -30 -11 0 -13 25 -15 180 -15 150 0 180 3
180 15 0 8 -8 13 -17 12 -54 -5 -51 -20 -52 259 0 141 0 267 0 279 -1 21 -4
22 -151 22 -121 0 -150 -3 -150 -14z"/>
<path d="M3190 1777 c0 -7 12 -14 27 -15 14 -1 27 -3 28 -5 1 -1 51 -126 112
-277 l111 -275 71 -1 71 -1 90 278 c88 268 92 278 118 281 15 2 27 8 27 13 0
6 -36 11 -83 12 -61 1 -82 -1 -79 -10 2 -7 17 -13 33 -14 16 0 32 -2 36 -2 4
-1 2 -18 -6 -38 -8 -21 -30 -90 -50 -153 -20 -63 -44 -135 -53 -159 l-16 -44
-29 84 c-16 46 -47 131 -69 189 -21 58 -39 108 -39 113 0 4 16 7 35 7 24 0 35
5 35 14 0 12 -31 15 -185 15 -139 0 -185 -3 -185 -12z"/>
<path d="M110 671 l0 -26 987 2 c544 1 991 2 996 2 4 1 7 12 7 25 l0 23 -995
0 -995 0 0 -26z"/>
</g>
</svg>
