<svg xmlns="http://www.w3.org/2000/svg" viewBox="0 0 116.26 116.26"><defs><style>.cls-1{fill:#503372;}.cls-2{fill:#f78083;}.cls-3{fill:#dd1e6a;}.cls-4{fill:#4b32a9;}.cls-5{fill:#54c893;}.cls-6{fill:#4b31a9;}</style></defs><title>bic</title><g id="Layer_2" data-name="Layer 2"><g id="Layer_1-2" data-name="Layer 1"><rect class="cls-1" width="116.26" height="116.26" rx="18.52" ry="18.52"/><rect class="cls-2" x="8.56" y="9.75" width="46.44" height="46.44" rx="23.22" ry="23.22"/><rect class="cls-3" x="60.45" y="9.75" width="46.44" height="46.43" rx="23.22" ry="23.22"/><rect class="cls-4" x="59.93" y="59.9" width="46.43" height="46.43" rx="23.22" ry="23.22"/><path class="cls-5" d="M31.56,62.23a15.07,15.07,0,0,1,3.78-7.83c1.1-1.18,1.84-2.44.38-3.76s-2.63-.24-3.66.89a19.88,19.88,0,0,0-4.84,10.18,2.87,2.87,0,0,1-1.45,1.86c-3.65,1.52-3.72,1.46-3.67,5.57a2.83,2.83,0,0,1-1.4,2.7C14,76.49,11,83,12.09,91.05s5.75,13.53,13.47,16.16A19.82,19.82,0,0,0,44,72.8c-2.15-1.59-3-3.15-2.65-5.61a2.46,2.46,0,0,0-2-2.95C36.87,63.58,34.33,62.94,31.56,62.23ZM25.77,52.16c.52-.49,1.58-1,1.88-1.85.48-1.3-.38-2.27-1.71-2.57a36.17,36.17,0,0,0-6.11-1.11,3,3,0,0,0-2.3,1.67,2.74,2.74,0,0,0,1.39,2.3A58.89,58.89,0,0,0,25.77,52.16Zm6.41-7.78C32.65,44.84,33.32,46,34,46a3.11,3.11,0,0,0,2.42-1.55,22.19,22.19,0,0,0,1.29-6.07A3,3,0,0,0,36.17,36a2.88,2.88,0,0,0-2.5,1.37A55.89,55.89,0,0,0,32.18,44.38ZM46.76,56.44c.48-.56,1.47-1.21,1.59-2a2.66,2.66,0,0,0-1.18-2.28,30.79,30.79,0,0,0-6.71-1.35,2.78,2.78,0,0,0-2.19,1.6,2.71,2.71,0,0,0,1.29,2.34A67.92,67.92,0,0,0,46.76,56.44Zm-7.42-6.54a61.16,61.16,0,0,0,4.9-4c.31-.3,0-1.69-.45-2.17a2.41,2.41,0,0,0-2.17-.56,15,15,0,0,0-3.92,2.62,2.77,2.77,0,0,0-.36,2.39C37.55,48.79,38.46,49.17,39.34,49.89Zm-8-5C30,43.2,28.91,41.52,27.55,40c-.28-.31-1.58-.14-2,.25s-1.06,1.61-.83,2.09a20.17,20.17,0,0,0,2.92,4.43c.35.41,1.59.37,2.25.1S30.72,45.8,31.35,44.93Zm6.1,10.49a2.2,2.2,0,0,0-2.29,3.07,12.35,12.35,0,0,0,2.45,3.57,2.78,2.78,0,0,0,2.66.32,2.87,2.87,0,0,0,.67-2.63,13.13,13.13,0,0,0-2.25-3.46A4.36,4.36,0,0,0,37.45,55.42Zm-11.55-1c-2.35-.06-4.8,1.88-4.43,3.16a3.46,3.46,0,0,0,2.08,2c1.28.36,3.9-1.78,3.68-2.93A6.74,6.74,0,0,0,25.9,54.45Z"/><path class="cls-3" d="M31.56,62.23c2.77.71,5.31,1.35,7.84,2a2.46,2.46,0,0,1,2,2.95c-.32,2.47.5,4,2.65,5.61a19.82,19.82,0,0,1-18.48,34.41c-7.73-2.64-12.37-8.13-13.47-16.16S14,76.49,20.7,71.84a2.83,2.83,0,0,0,1.4-2.7c0-4.11,0-4.05,3.67-5.57a2.87,2.87,0,0,0,1.45-1.86,19.88,19.88,0,0,1,4.84-10.18c1-1.13,2.12-2.28,3.66-.89s.72,2.59-.38,3.76A15.07,15.07,0,0,0,31.56,62.23Zm.11,10.59A15.56,15.56,0,1,0,47.29,88.23,15.69,15.69,0,0,0,31.67,72.82Zm5.28-4.13c-1.14-1.64-5.51-2.23-9-1.17a9.83,9.83,0,0,0-1.86,1.17Z"/><path class="cls-3" d="M25.77,52.16a58.89,58.89,0,0,1-6.86-1.56,2.74,2.74,0,0,1-1.39-2.3,3,3,0,0,1,2.3-1.67,36.17,36.17,0,0,1,6.11,1.11c1.33.3,2.19,1.28,1.71,2.57C27.35,51.13,26.29,51.68,25.77,52.16Z"/><path class="cls-3" d="M32.18,44.38a55.89,55.89,0,0,1,1.48-7A2.88,2.88,0,0,1,36.17,36a3,3,0,0,1,1.54,2.41,22.19,22.19,0,0,1-1.29,6.07A3.11,3.11,0,0,1,34,46C33.32,46,32.65,44.84,32.18,44.38Z"/><path class="cls-3" d="M46.76,56.44a67.92,67.92,0,0,1-7.19-1.69,2.71,2.71,0,0,1-1.29-2.34,2.78,2.78,0,0,1,2.19-1.6,30.79,30.79,0,0,1,6.71,1.35,2.66,2.66,0,0,1,1.18,2.28C48.24,55.22,47.24,55.88,46.76,56.44Z"/><path class="cls-3" d="M39.34,49.89c-.88-.72-1.8-1.1-2-1.71a2.77,2.77,0,0,1,.36-2.39,15,15,0,0,1,3.92-2.62,2.41,2.41,0,0,1,2.17.56c.45.48.75,1.87.45,2.17A61.16,61.16,0,0,1,39.34,49.89Z"/><path class="cls-3" d="M31.35,44.93c-.63.87-.93,1.72-1.5,2s-1.89.31-2.25-.1a20.17,20.17,0,0,1-2.92-4.43c-.23-.48.31-1.63.83-2.09s1.74-.56,2-.25C28.91,41.52,30,43.2,31.35,44.93Z"/><path class="cls-3" d="M37.45,55.42a4.36,4.36,0,0,1,1.25.87,13.13,13.13,0,0,1,2.25,3.46,2.87,2.87,0,0,1-.67,2.63,2.78,2.78,0,0,1-2.66-.32,12.35,12.35,0,0,1-2.45-3.57A2.2,2.2,0,0,1,37.45,55.42Z"/><path class="cls-3" d="M25.9,54.45a6.74,6.74,0,0,1,1.33,2.25c.22,1.15-2.4,3.29-3.68,2.93a3.46,3.46,0,0,1-2.08-2C21.1,56.33,23.55,54.39,25.9,54.45Z"/><path class="cls-1" d="M31.67,72.82A15.56,15.56,0,1,1,16.18,88.38,15.65,15.65,0,0,1,31.67,72.82Z"/><path class="cls-6" d="M36.95,68.69H26.09a9.83,9.83,0,0,1,1.86-1.17C31.43,66.46,35.8,67,36.95,68.69Z"/></g></g></svg>