<svg xmlns="http://www.w3.org/2000/svg" viewBox="0 0 119 100.75"><defs><style>.cls-1{fill:#503372;}.cls-2{fill:#c7c7c9;}.cls-3{fill:#99a0b2;}.cls-4{fill:#4b32a9;}.cls-5{fill:#4b31a9;}.cls-6{fill:#470082;}</style></defs><title>blindfold</title><g id="Layer_2" data-name="Layer 2"><g id="Layer_1-2" data-name="Layer 1"><path class="cls-1" d="M32.14,65.65A110.77,110.77,0,0,1,13,49.77c-1.05-.32-1.7-1.39-3-1.61A41.49,41.49,0,0,0,17,66.84l8.13,9.79c3.89,5.47,7.44,11.11,7.25,18.16-.08,2.79-.23,5.9-4.32,5.94-3-.65-4.41-2.51-4.74-5.58a30,30,0,0,0-9-18.53C1.52,64-1.23,48.49.44,31.61.86,27.4-.08,23.37.11,19.22.54,10,3.81,6.26,12.77,4.48,44.22-1.78,75.61-1.29,107,4.75c3.41.66,6.37,1.72,8.16,4.91,2.18,2.64,3.86,5.62,3.55,9.07C117.82,28.83,120,39,118.39,49c-1.56,9.88-5.17,18.78-12.28,26.18-5.48,5.7-9.53,12.35-10.65,20.45-.41,3-1.4,5.6-5.3,5-5-1-4.41-4.77-3.75-8.21A43.86,43.86,0,0,1,98.33,69.9c4-4.09,7.29-8.57,8.74-14.21-1-2.5.66-4.83.61-7.68A86.12,86.12,0,0,1,65.54,75.07a20.71,20.71,0,0,1-13.14,0A92.47,92.47,0,0,1,32.14,65.65Z"/><path class="cls-2" d="M57,66.84C39.14,62.27,24.28,53.24,13.9,37.64A38.4,38.4,0,0,1,8.6,26.4C6,16.61,8.18,13.05,18,11.54c13.62-2.1,27.24-4.36,41.12-3.76a6,6,0,0,1,1.59,4.59c-.14,16.65.34,33.3-.06,49.94C60.6,64.46,60.6,67.26,57,66.84Z"/><path class="cls-3" d="M57,66.84c2.6-.47,2.18-2.51,2.18-4.29q0-27.39-.07-54.78c15.21-.65,30.1,2.13,45,4.47,4.83.76,6.73,4.95,5.53,11.2-2.06,10.81-8.36,19.08-16.19,26.29-9.63,8.87-21.21,14.14-33.7,17.62A2.55,2.55,0,0,1,57,66.84Z"/><path class="cls-4" d="M31.21,15.78c6.61-.39,14.52,0,21.76,4.23,4.75,2.75,5.23,4.49,2.4,9.22A26,26,0,0,1,45.63,39c-7.84,4.32-15.57,3.26-21.83-3.15a37.89,37.89,0,0,1-8-13.12c-1.78-4.62-.14-6.83,5-6.94C23.76,15.73,26.76,15.78,31.21,15.78Z"/><path class="cls-5" d="M82.41,41.63c-8.89,0-18.95-7.42-21.5-15-.92-2.73.45-4.09,2.15-5.47,4.9-4,10.85-5,16.82-5.35,5.8-.38,11.64-.08,17.47-.09,3.38,0,5.5,1.35,5.13,5.05C101.75,28.08,92.57,39,85.5,41,84.24,41.35,82.92,41.53,82.41,41.63Z"/><path class="cls-6" d="M44.52,25c-6.09-1.85-12.3-1.26-18.92-1.08,1,3,2.34,5.08,4.65,6.55,5.23,4.51,9.45,4,15.12-1.67h0C48.18,26.85,46.94,25.74,44.52,25Z"/><path class="cls-6" d="M92.8,23.58c-5.92,11.12-13.39,13-20.49,6.07-2.55-2.5-3-4,1.2-5.07C79.73,23,85.94,24,92.8,23.58Z"/></g></g></svg>