<svg xmlns="http://www.w3.org/2000/svg" viewBox="0 0 124.56 114.18"><defs><style>.cls-1{fill:#503372;}.cls-2{fill:#dd1e6a;}</style></defs><title>fastFeet</title><g id="Layer_2" data-name="Layer 2"><g id="Layer_1-2" data-name="Layer 1"><path class="cls-1" d="M59.35,98.16l-3.72-1.75C43.21,90.55,31.83,83.1,22.79,72.12,14.13,61.6,9.08,49.45,9.24,35.36c.13-12,4.65-22.15,13.73-29.52C35.19-4.08,52.5-1,61.32,12.36c.36.54.73,1.07,1.18,1.73.75-1.1,1.39-2.09,2.08-3,9.9-13.5,28.56-14.85,40.22-2.74,8.75,9.08,12.11,20.3,10.65,33.12-2.06,18-11.47,31.17-24.6,41.84a105,105,0,0,1-23.24,14c-.52.23-1,.49-1.85.88.71.33,1.17.58,1.65.75a183.7,183.7,0,0,0,44.46,9.77c1.71.17,3.45.22,5.14.51.61.11,1.14.77,1.71,1.17-.64.35-1.31,1.08-1.9,1-7.47-.91-15-1.73-22.39-3a157.27,157.27,0,0,1-30.85-8.53,3.24,3.24,0,0,0-2.17,0c-17.14,6.64-34.93,9.95-53,11.49-.66.06-1.93-.51-2-.86-.11-1.66,1.29-1.33,2.21-1.4A188.24,188.24,0,0,0,57.45,98.91C58,98.72,58.49,98.5,59.35,98.16Zm1.29-82.69C54.29,3.53,39.73-1.37,28.27,5c-11.64,6.49-16.35,17.58-17,28.72.21,15,4.47,26,12,35.58C33.59,82.38,47,90.48,61.69,96.62a2.87,2.87,0,0,0,2-.16A101.8,101.8,0,0,0,91.29,80.07c9.78-8.31,17.34-18.33,20.71-31.39,3.26-12.64,2.15-24.57-5.62-35.22C95.14-1.94,74.53-1.34,64.8,14.57a6.62,6.62,0,0,0-.44.83"/><path class="cls-1" d="M8.06,114.1c-1.65,0-3.32.1-5,0A3.48,3.48,0,0,1,3,107.17c3.3-.16,6.62-.12,9.92,0,.45,0,1.18.81,1.25,1.32.74,5.42.49,5.69-4.62,5.69H8.06Zm4.3-5.06c-3.14,0-6.12-.07-9.09.07a1.53,1.53,0,0,0-.08,3c3,.15,6.07.07,9.17.07Z"/><path class="cls-1" d="M116.49,114.16h-4.2c-.38,0-.86.1-1.12-.1-1.88-1.46-.56-3.58-.89-5.37-.19-1.06.42-1.61,1.45-1.61,3.18,0,6.36-.07,9.54.06a3.36,3.36,0,0,1,3.28,3.5,3.45,3.45,0,0,1-3.3,3.49l-.38,0h-4.39Zm-4.38-1.92c3.09,0,6,.08,8.92-.07.58,0,1.11-1,1.66-1.49-.52-.55-1-1.54-1.57-1.57-3-.16-5.94-.07-9-.07Z"/><path class="cls-2" d="M11.3,33.74c.62-11.14,5.34-22.23,17-28.72,11.46-6.39,26-1.5,32.36,10.44a3.55,3.55,0,0,1,0,2.55c-1.78,4.69-3.24,9.42-2.54,14.58.43,3.18,1.93,4.66,4.59,4.59,2.46-.07,4-1.7,4.29-4.76a27.55,27.55,0,0,0-2.52-14,3.7,3.7,0,0,1,.35-3.88c9.73-15.91,30.34-16.5,41.58-1.11C114.15,24.11,115.27,36,112,48.68c-3.37,13.06-10.93,23.08-20.71,31.39A101.8,101.8,0,0,1,63.68,96.46a2.87,2.87,0,0,1-2,.16C47,90.48,33.59,82.38,23.33,69.32,15.77,59.71,11.51,48.7,11.3,33.74Z"/><path class="cls-2" d="M12.36,109v3.18c-3.1,0-6.14.07-9.17-.07a1.53,1.53,0,0,1,.08-3C6.24,109,9.22,109,12.36,109Z"/><path class="cls-2" d="M112.11,112.24V109c3.07,0,6-.08,9,.07.55,0,1,1,1.57,1.57-.55.52-1.09,1.46-1.66,1.49C118.12,112.32,115.2,112.24,112.11,112.24Z"/><rect class="cls-2" x="55.64" y="15.35" width="14.17" height="31.17"/></g></g></svg>