<svg xmlns="http://www.w3.org/2000/svg" viewBox="0 0 136.25 128.79"><defs><style>.cls-1{fill:#503372;}.cls-2{fill:#dd1e6a;}.cls-3{fill:#d2fc5f;}.cls-4{fill:#54c693;}.cls-5{fill:#d2fb5f;}.cls-6{fill:#d4e8f7;}.cls-7{fill:#16c3cb;}</style></defs><title>gadi</title><g id="Layer_2" data-name="Layer 2"><g id="Layer_1-2" data-name="Layer 1"><path class="cls-1" d="M131.59,87.09a34.27,34.27,0,0,0-14.92-12c-2.12-2.19-2.52-4.91-2.51-7.81,0-9.61.06-19.21,0-28.82,0-3,.47-5.44,3.59-6.89a5.1,5.1,0,0,0,2.95-6.24c-2.23-7.24-3.76-14.76-7.81-21.34a6.38,6.38,0,0,0-6.27-4Q59.89.12,13.17,0C10,0,8.23,1.27,7.28,4.22Q4,14.42.53,24.55C-.6,27.84.18,30.32,3.59,31.13c3.1.74,4,2.55,4,5.35q0,39.22,0,78.44c0,1.82,0,3.27-2.52,3.17a4.53,4.53,0,0,0-5,4c-.46,2.68,1.07,4.38,3.61,5.18,5.25,2.2,10.73,1.55,16.09.92,4-.47,5.07-2.81,4-7.12a7.54,7.54,0,0,0-3.08-3c-3.11-2.71-3.09-6.29-1.82-9.57,1.11-2.89,4.31-1.85,6.64-1.86,16.06-.09,32.13,0,48.19-.05,3.19,0,6.32.09,8.77,2.57,2.38,7,7.31,11.82,13.3,15.77a22.88,22.88,0,0,0,15.11,3.46c10.23-1.1,17.74-6.3,22.2-15.46C137.37,104.15,137.69,95.36,131.59,87.09ZM86.79,58.91c-3,.7-4.31-.41-4-3.58.23-2.46.16-4.95.22-7.42-.7-2.09-2.16-3.52-4.32-3.59-5.15-.15-10.33-.31-15.46,0-3.48.24-4.1,3.13-4.41,6.21-.28,2.78,1.47,5.86-1.06,8.35h0c-2.76.47-4.42,0-4.19-3.49.32-4.81.21-9.65.29-14.48-1.25-3-3.38-4.1-6.68-4-6.32.23-12.65.2-19,0-4.3-.12-6.1,1.74-6,5.93s.1,8.65,0,13c0,1.15.71,2.86-1.49,3-2.81-3.72-1.57-8-1.62-12.1C19,33.42,19.09,33.41,32.62,33.41H94.12a29.73,29.73,0,0,1,6,.31c1.75.36,3.19,1.07,3.1,3.23-.29,7.29.64,14.61-.52,21.88Zm7.06,33c1.29.07,3.82,1.84,3.24,3.7-1,3.23-3.87.89-7.09,2.06C91.9,94.64,91.4,91.74,93.85,91.88Zm-.66,17.54c-1.26-.13-2.78-3.49-1.91-4.49,2-2.24,5-.75,8.71-.9C97.17,106.38,96.32,109.73,93.19,109.42Zm11.43,8.18c-2.3-.11-5.32-.84-5.37-2.4-.09-2.8,3-4,5.37-6.39Zm0-29.48c-.57.8-.79,1.93-2,2.08C101.15,89,98.66,87.9,99.24,86s3-2.12,5-2.18C105,85.21,104.7,86.67,104.59,88.12Zm10.19,28.18c-4.06,1.47-4.2,1.21-3.2-5.93,1.8-.21,2.38,1.26,3.21,2.35A3.24,3.24,0,0,1,114.78,116.31Zm-3.61-23.9c0-3.48-1.49-6.53.87-8.43,1.25-1,4.7.48,4.8,2.08C117,89,113.75,90,111.17,92.41Zm12.63,14.66a4.17,4.17,0,0,1-3.23,1.15l-4-3.66c3-.94,5.44-1.1,7.74,0C125.12,104.92,124.58,106.33,123.8,107.07Zm.6-10.81c-1.8,2-4.63.79-7.9.71,2.27-2.4,3.48-5.18,6.13-5.14C123.87,91.85,125.42,95.13,124.39,96.27Z"/><path class="cls-2" d="M60,68C73,68,86,68,99,68.1c1.69,0,4.24-1.21,4.65,2.09.36,2.93-.66,4.37-3.69,5.3-8.51,2.61-14.19,8.48-17,16.84-1,2.8-2.14,3.91-5.21,3.89Q49,96,20.3,96.21c-3.1,0-4.55-.66-4.39-4.12.3-6.47.33-13,.28-19.44,0-3.53,1.16-4.79,4.94-4.71C34.1,68.21,47.07,68,60,68Z"/><path class="cls-3" d="M73.26,22.64c-9.13,0-11.22-2.73-9.15-11.69A2,2,0,0,1,66.45,9c3.49,0,7,.1,10.46,0,2.67-.1,2.7,2,3.28,3.61C83.78,22.64,83.77,22.64,73.26,22.64Z"/><path class="cls-4" d="M36.61,22.18c1.16-3.6,2.31-6.86,3.25-10.18.66-2.3,2-3.29,4.35-3a14.54,14.54,0,0,0,2,0C56.48,9,56.4,9,55.78,19.28c-.15,2.56-1.06,3.62-3.56,3.56-2.66-.06-5.32.07-8,0C41.82,22.71,39.39,22.41,36.61,22.18Z"/><path class="cls-5" d="M19.5,22.64c-8.93,0-8.56.1-6.37-8.1C14.46,9.61,17,8.77,21.57,8.93c10.18.36,9.86,0,7.18,9.75C27,24.87,22.47,21.78,19.5,22.64Z"/><path class="cls-4" d="M100.15,22.83c-2.18-.47-5.7,1.37-7.17-1-2.05-3.27-3-7.3-4.1-11.09-.51-1.71,1.11-1.7,2.25-1.71,3.82,0,7.63,0,11.45,0a2.92,2.92,0,0,1,3.14,2.54c.25,1,.63,1.89.95,2.83C109.69,23.32,110.15,22.82,100.15,22.83Z"/><path class="cls-6" d="M44.58,52.55c-.12,7.69,1,6.61-7.1,6.64-7.18,0-6.36.9-6.36-6.89,0-7.56-.77-6.36,7.35-6.39C45.52,45.88,44.49,45.22,44.58,52.55Z"/><path class="cls-7" d="M70.62,53.17c2.24-.29,3.33.56,3.27,3,0,2-.59,3-2.81,3s-3.38-.59-3.3-3.06C67.84,54.17,68.32,52.92,70.62,53.17Z"/></g></g></svg>