<svg xmlns="http://www.w3.org/2000/svg" viewBox="0 0 137.25 129.79"><defs><style>.cls-1{fill:#503372;stroke:#503372;stroke-miterlimit:10;}.cls-2{fill:#dd1e6a;}.cls-3{fill:#d2fc5f;}.cls-4{fill:#54c693;}.cls-5{fill:#d2fb5f;}.cls-6{fill:#d4e8f7;}.cls-7{fill:#16c3cb;}</style></defs><title>gadi</title><g id="Layer_2" data-name="Layer 2"><g id="Layer_1-2" data-name="Layer 1"><path class="cls-1" d="M132.09,87.59a34.27,34.27,0,0,0-14.92-12c-2.12-2.19-2.52-4.91-2.51-7.81,0-9.61.06-19.21,0-28.82,0-3,.47-5.44,3.59-6.89a5.1,5.1,0,0,0,2.95-6.24C119,18.56,117.42,11,113.37,4.46a6.38,6.38,0,0,0-6.27-4Q60.39.62,13.67.51c-3.14,0-4.94,1.25-5.89,4.21Q4.51,14.92,1,25C-.1,28.34.68,30.82,4.09,31.63c3.1.74,4,2.55,4,5.35q0,39.22,0,78.44c0,1.82,0,3.27-2.52,3.17a4.53,4.53,0,0,0-5,4c-.46,2.68,1.07,4.38,3.61,5.18,5.25,2.2,10.73,1.55,16.09.92,4-.47,5.07-2.81,4-7.12a7.54,7.54,0,0,0-3.08-3c-3.11-2.71-3.09-6.29-1.82-9.57,1.11-2.89,4.31-1.85,6.64-1.86,16.06-.09,32.13,0,48.19-.05,3.19,0,6.32.09,8.77,2.57,2.38,7,7.31,11.82,13.3,15.77a22.88,22.88,0,0,0,15.11,3.46c10.23-1.1,17.74-6.3,22.2-15.46C137.87,104.65,138.19,95.86,132.09,87.59ZM87.29,59.41c-3,.7-4.31-.41-4-3.58.23-2.46.16-4.95.22-7.42-.7-2.09-2.16-3.52-4.32-3.59-5.15-.15-10.33-.31-15.46,0-3.48.24-4.1,3.13-4.41,6.21-.28,2.78,1.47,5.86-1.06,8.35h0c-2.76.47-4.42,0-4.19-3.49.32-4.81.21-9.65.29-14.48-1.25-3-3.38-4.1-6.68-4-6.32.23-12.65.2-19,0-4.3-.12-6.1,1.74-6,5.93s.1,8.65,0,13c0,1.15.71,2.86-1.49,3-2.81-3.72-1.57-8-1.62-12.1-.15-13.41-.06-13.41,13.48-13.41H94.62a29.73,29.73,0,0,1,6,.31c1.75.36,3.19,1.07,3.1,3.23-.29,7.29.64,14.61-.52,21.88Zm7.06,33c1.29.07,3.82,1.84,3.24,3.7-1,3.23-3.87.89-7.09,2.06C92.4,95.14,91.9,92.24,94.35,92.38Zm-.66,17.54c-1.26-.13-2.78-3.49-1.91-4.49,2-2.24,5-.75,8.71-.9C97.67,106.88,96.82,110.23,93.69,109.92Zm11.43,8.18c-2.3-.11-5.32-.84-5.37-2.4-.09-2.8,3-4,5.37-6.39Zm0-29.48c-.57.8-.79,1.93-2,2.08-1.41-1.24-3.9-2.31-3.32-4.25s3-2.12,5-2.18C105.53,85.71,105.2,87.17,105.09,88.62Zm10.19,28.18c-4.06,1.47-4.2,1.21-3.2-5.93,1.8-.21,2.38,1.26,3.21,2.35A3.24,3.24,0,0,1,115.28,116.81Zm-3.61-23.9c0-3.48-1.49-6.53.87-8.43,1.25-1,4.7.48,4.8,2.08C117.51,89.53,114.25,90.52,111.67,92.91Zm12.63,14.66a4.17,4.17,0,0,1-3.23,1.15l-4-3.66c3-.94,5.44-1.1,7.74,0C125.62,105.42,125.08,106.83,124.3,107.57Zm.6-10.81c-1.8,2-4.63.79-7.9.71,2.27-2.4,3.48-5.18,6.13-5.14C124.37,92.35,125.92,95.63,124.89,96.77Z"/><path class="cls-2" d="M60.54,68.55c13,0,25.94,0,38.91.05,1.69,0,4.24-1.21,4.65,2.09.36,2.93-.66,4.37-3.69,5.3-8.51,2.61-14.19,8.48-17,16.84-1,2.8-2.14,3.91-5.21,3.89q-28.68-.21-57.37,0c-3.1,0-4.55-.66-4.39-4.12.3-6.47.33-13,.28-19.44,0-3.53,1.16-4.79,4.94-4.71C34.6,68.71,47.57,68.55,60.54,68.55Z"/><path class="cls-3" d="M73.76,23.14c-9.13,0-11.22-2.73-9.15-11.69A2,2,0,0,1,67,9.55c3.49,0,7,.1,10.46,0,2.67-.1,2.7,2,3.28,3.61C84.28,23.14,84.27,23.14,73.76,23.14Z"/><path class="cls-4" d="M37.11,22.68c1.16-3.6,2.31-6.86,3.25-10.18.66-2.3,2-3.29,4.35-3a14.54,14.54,0,0,0,2,0c10.28,0,10.19,0,9.58,10.23-.15,2.56-1.06,3.62-3.56,3.56-2.66-.06-5.32.07-8,0C42.32,23.21,39.89,22.91,37.11,22.68Z"/><path class="cls-5" d="M20,23.14c-8.93,0-8.56.1-6.37-8.1,1.32-4.94,3.86-5.78,8.44-5.62,10.18.36,9.86,0,7.18,9.75C27.55,25.37,23,22.28,20,23.14Z"/><path class="cls-4" d="M100.65,23.33c-2.18-.47-5.7,1.37-7.17-1-2.05-3.27-3-7.3-4.1-11.09-.51-1.71,1.11-1.7,2.25-1.71,3.82,0,7.63,0,11.45,0a2.92,2.92,0,0,1,3.14,2.54c.25,1,.63,1.89.95,2.83C110.19,23.82,110.65,23.32,100.65,23.33Z"/><path class="cls-6" d="M45.08,53c-.12,7.69,1,6.61-7.1,6.64-7.18,0-6.36.9-6.36-6.89,0-7.56-.77-6.36,7.35-6.39C46,46.38,45,45.72,45.08,53Z"/><path class="cls-7" d="M71.12,53.67c2.24-.29,3.33.56,3.27,3,0,2-.59,3-2.81,3s-3.38-.59-3.3-3.06C68.34,54.67,68.82,53.42,71.12,53.67Z"/></g></g></svg>