<svg xmlns="http://www.w3.org/2000/svg" xmlns:xlink="http://www.w3.org/1999/xlink" viewBox="0 0 115.27 117.42"><defs><style>.cls-1{fill:#503372;}.cls-2{fill:url(#linear-gradient);}.cls-3{fill:#dd1e6a;}</style><linearGradient id="linear-gradient" x1="25.83" y1="62.79" x2="89.51" y2="62.79" gradientUnits="userSpaceOnUse"><stop offset="0" stop-color="#503372"/><stop offset="1" stop-color="#ed1e79"/></linearGradient></defs><title>gtb</title><g id="Layer_2" data-name="Layer 2"><g id="Layer_1-2" data-name="Layer 1"><path class="cls-1" d="M57.88,0C87.9,0,112,22.63,115,53.44A59,59,0,0,1,84.6,110.71c-2.81,1.5-5.45,1.69-7.87-.57-2-1.87-2.16-4.29-1.26-6.74s3-3.26,4.95-4.43c11.54-7,19.16-17.06,21.69-30.54,3.39-18.07-1.29-33.85-15.47-45.53C72.16,11,55.76,8.44,38.68,16.59c-16.76,8-25.83,21.75-26.32,40.82-.47,18.43,7.52,32.22,22.85,41.73,1.53.95,3.25,1.7,4.19,3.34,1.42,2.47,1.49,5.05-.41,7.23-2.32,2.66-5.15,2.68-8.14,1A57.61,57.61,0,0,1,7.23,87C-13.91,47.56,13.8,0,57.88,0Z"/><path class="cls-2" d="M59.22,25.68c14.33.06,27,11.07,29.81,27C91.68,67.53,83.17,83,69.16,88.19c-3.35,1.25-5.74,2.39-5.82,6.73-.06,3.24-2.64,5.13-5.91,5s-5.08-2.25-5.62-5.51c-1.65-10.11,1-14.24,10.67-16.85,9.15-2.46,15.84-11.73,15-20.77-1-10.41-8.85-18.37-18.69-18.89S40.42,44.12,38.39,54.12c-.27,1.34-.52,2.69-.71,4-.52,3.65-2.33,6-6.15,5.87-3.39-.11-5.94-3.36-5.67-7.5.55-8.53,3.64-16.06,9.82-21.92S49.34,25.44,59.22,25.68Z"/><path class="cls-3" d="M63.54,110.93c.1,3.7-2.66,6.66-5.92,6.48-3.5-.19-5.52-2.24-5.77-5.79a5.81,5.81,0,0,1,5.9-6.12A5.73,5.73,0,0,1,63.54,110.93Z"/></g></g></svg>