<svg xmlns="http://www.w3.org/2000/svg" viewBox="0 0 116.58 118.52"><defs><style>.cls-1{fill:#503372;}.cls-2{fill:#dd1e6a;}</style></defs><title>highya</title><g id="Layer_2" data-name="Layer 2"><g id="Layer_1-2" data-name="Layer 1"><path class="cls-1" d="M35.26,68.92C33.89,71.37,32.78,74,31,76.19c-1.2,1.48-3.82,3.54-4.86,3.1-3.1-1.31-1.56-4-.49-6.2A19.56,19.56,0,0,0,28,66.63c-1.39.61-2.75,1.61-4.19,1.73s-3.12-.57-4.69-.9c.63-1.51.83-3.65,2-4.42a81.52,81.52,0,0,1,10.38-5.71c3.51-1.7,3.21-4.11.68-5.86A12.56,12.56,0,0,0,25,49.55c-3.46.08-6.87,1.2-10.33,1.65-4.64.6-8-1.42-9.88-5.64C3.23,41.94,1.89,38.21.59,34.48-.94,30.11.62,26.2,4.2,25s6.87.62,8.6,4.76c2.81,6.73,5.18,7.77,12,5.1q25-9.86,50.08-19.76a15.09,15.09,0,0,1,3.9-1.19c3.29-.33,6.22.65,7.42,4a6.29,6.29,0,0,1-2.79,7.95c-5.32,3.25-10.8,6.23-16.18,9.39A46,46,0,0,0,63.43,38l.4,1.18c4.44,0,8.88.17,13.3,0,10.18-.47,20.35-1.19,30.52-1.69,5.46-.27,8.21,1.45,8.82,5.15.69,4.22-2,7.81-7.2,9Q91.91,55.43,74.5,59c-14.48,3-15.33,4.08-15.62,19-.21,10.65-.6,21.29-1,31.94-.18,5-3,8.35-7.12,8.54s-7.24-2.66-8-7.68c-1.87-11.7-3.58-23.43-5.38-35.14-.34-2.19-.74-4.37-1.11-6.55Z"/><path class="cls-2" d="M47,10.65a11.09,11.09,0,0,1-10.52,11A11,11,0,0,1,25.44,10.77,10.43,10.43,0,0,1,36.36,0,10.61,10.61,0,0,1,47,10.65Z"/></g></g></svg>