<svg xmlns="http://www.w3.org/2000/svg" viewBox="0 0 120.76 116.96"><defs><style>.cls-1{fill:#503372;}.cls-2{fill:#dd1e6a;}</style></defs><title>hulahoop</title><g id="Layer_2" data-name="Layer 2"><g id="Layer_1-2" data-name="Layer 1"><path class="cls-1" d="M62.09,54.67c2.22-11.35,3.17-22.74.74-34.18-1.19-5.61-3.22-10.87-7.39-15C50.27.3,44.09-1.15,37.17.89c-8.24,2.43-14,8.16-19,14.83C8.37,29.06,3.29,44.31,1,60.56-.63,72.18-.46,83.75,2.89,95.12a40.65,40.65,0,0,0,3,7.56c4.2,7.94,10.34,12.7,19.77,12.05a12.8,12.8,0,0,0,6-1.73c7.68-4.18,12.51-11,16.77-18.3,4.09-7,6.78-14.67,9.53-22.27.29-.81.73-1.66,0-2.48a4.46,4.46,0,0,0-4,.75c-1.76,3.31-2.59,7-4.24,10.38-4.23,8.69-9.43,16.62-17.24,22.56a16.81,16.81,0,0,1-6.36,2.94A7.89,7.89,0,0,1,18,103.94c-2.71-3-3.88-6.7-4.78-10.53-.65-3.44-.7-7-1.19-10.41a93.32,93.32,0,0,1,.91-13.61,110.46,110.46,0,0,1,14-42.25,47.82,47.82,0,0,1,9.2-11.51,15.24,15.24,0,0,1,6-3.53,6.19,6.19,0,0,1,6.13,1.42c2.93,2.48,4.55,5.78,5.82,9.23a53.54,53.54,0,0,1,3.13,17.3,75.36,75.36,0,0,1-.32,12.78A4,4,0,0,0,57.43,56,4.16,4.16,0,0,0,62.09,54.67Z"/><path class="cls-2" d="M62.09,54.67l-4.66,1.15c-.79-.51-1.57-.16-2.33.05-13.31,3.68-25.54,9.48-36.21,18.35a62.78,62.78,0,0,0-5.94,5.87A5.75,5.75,0,0,0,11.39,83a48.23,48.23,0,0,0,1.29,11c.71,0,1-.49,1.35-1,4.64-7.27,11.79-11.24,19.33-14.65A95.37,95.37,0,0,1,51.92,72.2,6.48,6.48,0,0,0,54.23,71l3.66-.73c2.81.77,5.53-.29,8.28-.52,8.8-.72,17.6-1.13,26.41-.2a29.67,29.67,0,0,1,10.95,3.21c5.07,2.71,6.11,6,3.48,11.13-3,5.81-7.89,9.84-13.12,13.45-9.83,6.77-20.78,10.9-32.39,13.47a102,102,0,0,1-18.6,2.09,53.68,53.68,0,0,1-7.69-.44,12.16,12.16,0,0,0-3.92,0l-5.6,2.2c3.62,1.61,7.54,1.83,11.37,2a121.2,121.2,0,0,0,61.59-12.5c6.57-3.28,12.53-7.45,17.08-13.35,8.19-10.62,6.22-22.66-4.92-30.15-6.58-4.43-14-6.35-21.75-7.38a73.39,73.39,0,0,0-25,1C63.41,54.55,62.74,54.59,62.09,54.67Z"/></g></g></svg>