<svg xmlns="http://www.w3.org/2000/svg" viewBox="0 0 136.02 128.52"><defs><style>.cls-1{fill:#503372;}.cls-2{fill:#d3fd5f;}.cls-3{fill:#7ee365;}.cls-4{fill:#7fe465;}.cls-5{fill:#d1fa60;}.cls-6{fill:#14cacd;}.cls-7{fill:#edc51e;}.cls-8{fill:#f0c81c;}.cls-9{fill:#d61e6d;}.cls-10{fill:#16c5cb;}.cls-11{fill:#dc1d6a;}.cls-12{fill:#14c9cc;}.cls-13{fill:#15c8cd;}.cls-14{fill:#249dc3;}.cls-15{fill:#2796c0;}</style></defs><title>leaf</title><g id="Layer_2" data-name="Layer 2"><g id="Layer_1-2" data-name="Layer 1"><path class="cls-1" d="M81.63,111.21l2.88,4c2.12,5.28.41,7.77-4.89,7.07l-3-2.11A7.1,7.1,0,0,1,73,117.5c-.08,10.27-1.12,11.77-7.3,10.75-2.21-.94-2.64-3-3.13-5-1.71-1.75-.87-4-1-5.66-1.63,2.38-2.77,5.62-7,4.74-4.47-2.07-5.2-4.06-2.8-7.89a25.92,25.92,0,0,1,2.87-4c2.44-2.62,1.77-4.57-1-6.25-3.71-3.28-9.08-2.11-13-4.84-1.94-.54-2.86-2.2-3.94-3.65Q21.22,74.77,5.81,53.87c-8.56-11.64-7.56-25.3,2.37-33.54C18.33,11.91,31.93,13.45,42,24.19a9.38,9.38,0,0,1,1,1.44c1.66-.9,1.1-2,1.16-2.93C44.67,12.78,49.4,5.61,58.6,1.87,68.05-2,76.54.26,83.92,7.07a52.54,52.54,0,0,1,3.63,4.1A18.21,18.21,0,0,1,91.66,21c.19,1.42.48,2.19,2,1.44C107.82,11.5,119.17,12.28,130.88,25c8,10.12,5.63,19.72.06,27.65-10.52,15-21.63,29.56-32.55,44.26a9.26,9.26,0,0,1-6.23,3.73,38.17,38.17,0,0,0-5.38,1.07C82.16,103.2,80.43,106.46,81.63,111.21Z"/><path class="cls-2" d="M71.7,64.07V10c5.23,1,9.1,4.49,9.88,10,1.48,10.55,1,21.24.36,31.79C81.63,56.78,75.53,59,71.7,64.07Z"/><path class="cls-3" d="M90.92,60.22c-4.14-14.16,1.64-24.48,10.93-33.38a13.24,13.24,0,0,1,12.1-3.29c1.23.25,2.85.53,1.42,2.52C107.26,37.35,99.2,48.65,90.92,60.22Z"/><path class="cls-4" d="M43.38,59.58c-7.87-10.9-15.71-21.83-23.64-32.68-1.76-2.41-.73-3.26,1.58-3.5a14.49,14.49,0,0,1,13.6,5.74c2.88,3.66,5.57,7.46,8.36,11.19a5.13,5.13,0,0,1,1.24,3.18c0,5.26,0,10.52,0,15.78Z"/><path class="cls-5" d="M62.31,50.27c-3.33-3.47-8.84-6-9.4-10.47-.93-7.42-1.67-15.24.92-22.68a10.21,10.21,0,0,1,1.83-3c1.81-2.21,4.17-5,6.78-4.24,1.92.52.73,4.15.76,6.37.12,9.64.09,19.28,0,28.92C63.21,46.79,63.82,48.53,62.31,50.27Z"/><path class="cls-3" d="M11.45,29.3c5,6.88,9.77,13.41,14.5,20,.73,1,1.3,2.16,2.24,3.75-7.14-1.85-15.33.18-18.52-8.65C7.84,39.28,7.82,34.41,11.45,29.3Z"/><path class="cls-6" d="M52.83,72.83c13,5.91,10.86,17,10.31,27.77C50.28,94.6,52,83.56,52.83,72.83Z"/><path class="cls-3" d="M106.76,52,123.12,29.2c3.66,5.46,3.57,10.61,1.32,16C121,53.39,113.22,51.16,106.76,52Z"/><path class="cls-7" d="M102.48,75.21,91,90.58l-1-.37c0-3.56.1-7.13,0-10.68-.09-2.3,1.33-2.78,3.05-3C95.79,76.09,98.56,75.74,102.48,75.21Z"/><path class="cls-8" d="M32.86,75.42c11.78,1.53,11.78,1.53,11.66,12.78,0,.65,0,1.3,0,2.06C41.38,88.18,36.22,81.62,32.86,75.42Z"/><path class="cls-9" d="M72.13,82.35c-2.6-9.69,5.43-12,9.6-17.9C84.24,74.42,76,76.61,72.13,82.35Z"/><path class="cls-10" d="M72.15,101.64c-2.61-10,5.4-12.29,9.52-18.06C84.45,93.35,76,95.46,72.15,101.64Z"/><path class="cls-11" d="M62.92,69.07c-8.69-6-10.59-8.92-10.14-15.17C59.5,57,63.63,63,62.92,69.07Z"/><path class="cls-12" d="M35.52,67.27c-10.25-.67-10.25-.67-14.14-7.39,6.05,2.27,12.81-.69,16.47,6.1C37.85,67.81,36.8,67.76,35.52,67.27Z"/><path class="cls-13" d="M111.81,62.28c-1.19,3.36-4,4-7.07,4.33-2.76.28-5.5.84-8.6,1.34,2.21-7.34,8.4-6,13.4-6.91C110.81,60.52,111.83,60.44,111.81,62.28Z"/><path class="cls-14" d="M111.81,62.28c-.47-.94-1.38-1.07-2.27-1.24.94-.83,2.21-1.36,3.15-.59C113.45,61.09,112.46,61.82,111.81,62.28Z"/><path class="cls-15" d="M35.52,67.27c.91-.2,1.84-.34,2.34-1.29.65.48,1.57,1.22.78,1.85S36.45,68.12,35.52,67.27Z"/></g></g></svg>