<svg xmlns="http://www.w3.org/2000/svg" viewBox="0 0 137.02 129.52"><defs><style>.cls-1{fill:#503372;stroke:#503372;stroke-miterlimit:10;}.cls-2{fill:#d3fd5f;}.cls-3{fill:#7ee365;}.cls-4{fill:#7fe465;}.cls-5{fill:#d1fa60;}.cls-6{fill:#14cacd;}.cls-7{fill:#edc51e;}.cls-8{fill:#f0c81c;}.cls-9{fill:#d61e6d;}.cls-10{fill:#16c5cb;}.cls-11{fill:#dc1d6a;}.cls-12{fill:#14c9cc;}.cls-13{fill:#15c8cd;}.cls-14{fill:#249dc3;}.cls-15{fill:#2796c0;}</style></defs><title>leaf</title><g id="Layer_2" data-name="Layer 2"><g id="Layer_1-2" data-name="Layer 1"><path class="cls-1" d="M82.13,111.71l2.88,4c2.12,5.28.41,7.77-4.89,7.07l-3-2.11a7.1,7.1,0,0,1-3.6-2.64c-.08,10.27-1.12,11.77-7.3,10.75-2.21-.94-2.64-3-3.13-5-1.71-1.75-.87-4-1-5.66-1.63,2.38-2.77,5.62-7,4.74-4.47-2.07-5.2-4.06-2.8-7.89a25.92,25.92,0,0,1,2.87-4c2.44-2.62,1.77-4.57-1-6.25-3.71-3.28-9.08-2.11-13-4.84-1.94-.54-2.86-2.2-3.94-3.65Q21.72,75.27,6.31,54.37c-8.56-11.64-7.56-25.3,2.37-33.54C18.83,12.41,32.43,14,42.47,24.69a9.38,9.38,0,0,1,1,1.44c1.66-.9,1.1-2,1.16-2.93C45.17,13.28,49.9,6.11,59.1,2.37,68.55-1.47,77,.76,84.42,7.57a52.54,52.54,0,0,1,3.63,4.1,18.21,18.21,0,0,1,4.11,9.81c.19,1.42.48,2.19,2,1.44C108.32,12,119.67,12.78,131.38,25.5c8,10.12,5.63,19.72.06,27.65-10.52,15-21.63,29.56-32.55,44.26a9.26,9.26,0,0,1-6.23,3.73,38.17,38.17,0,0,0-5.38,1.07C82.66,103.7,80.93,107,82.13,111.71Z"/><path class="cls-2" d="M72.2,64.57V10.48c5.23,1,9.1,4.49,9.88,10,1.48,10.55,1,21.24.36,31.79C82.13,57.28,76,59.48,72.2,64.57Z"/><path class="cls-3" d="M91.42,60.72c-4.14-14.16,1.64-24.48,10.93-33.38a13.24,13.24,0,0,1,12.1-3.29c1.23.25,2.85.53,1.42,2.52C107.76,37.85,99.7,49.15,91.42,60.72Z"/><path class="cls-4" d="M43.88,60.08C36,49.18,28.17,38.25,20.23,27.39c-1.76-2.41-.73-3.26,1.58-3.5a14.49,14.49,0,0,1,13.6,5.74c2.88,3.66,5.57,7.46,8.36,11.19A5.13,5.13,0,0,1,45,44c0,5.26,0,10.52,0,15.78Z"/><path class="cls-5" d="M62.81,50.77c-3.33-3.47-8.84-6-9.4-10.47-.93-7.42-1.67-15.24.92-22.68a10.21,10.21,0,0,1,1.83-3c1.81-2.21,4.17-5,6.78-4.24,1.92.52.73,4.15.76,6.37.12,9.64.09,19.28,0,28.92C63.71,47.29,64.32,49,62.81,50.77Z"/><path class="cls-3" d="M11.95,29.8c5,6.88,9.77,13.41,14.5,20,.73,1,1.3,2.16,2.24,3.75-7.14-1.85-15.33.18-18.52-8.65C8.34,39.78,8.32,34.91,11.95,29.8Z"/><path class="cls-6" d="M53.33,73.33c13,5.91,10.86,17,10.31,27.77C50.78,95.1,52.54,84.06,53.33,73.33Z"/><path class="cls-3" d="M107.26,52.55,123.62,29.7c3.66,5.46,3.57,10.61,1.32,16C121.52,53.89,113.72,51.66,107.26,52.55Z"/><path class="cls-7" d="M103,75.71,91.51,91.08l-1-.37c0-3.56.1-7.13,0-10.68-.09-2.3,1.33-2.78,3.05-3C96.29,76.59,99.06,76.24,103,75.71Z"/><path class="cls-8" d="M33.36,75.92C45.13,77.45,45.13,77.45,45,88.69c0,.65,0,1.3,0,2.06C41.88,88.68,36.72,82.12,33.36,75.92Z"/><path class="cls-9" d="M72.63,82.85c-2.6-9.69,5.43-12,9.6-17.9C84.74,74.92,76.52,77.11,72.63,82.85Z"/><path class="cls-10" d="M72.65,102.14c-2.61-10,5.4-12.29,9.52-18.06C84.95,93.85,76.47,96,72.65,102.14Z"/><path class="cls-11" d="M63.42,69.57c-8.69-6-10.59-8.92-10.14-15.17C60,57.52,64.13,63.48,63.42,69.57Z"/><path class="cls-12" d="M36,67.77c-10.25-.67-10.25-.67-14.14-7.39,6.05,2.27,12.81-.69,16.47,6.1C38.35,68.31,37.3,68.26,36,67.77Z"/><path class="cls-13" d="M112.31,62.78c-1.19,3.36-4,4-7.07,4.33-2.76.28-5.5.84-8.6,1.34,2.21-7.34,8.4-6,13.4-6.91C111.31,61,112.33,60.94,112.31,62.78Z"/><path class="cls-14" d="M112.31,62.78c-.47-.94-1.38-1.07-2.27-1.24.94-.83,2.21-1.36,3.15-.59C114,61.59,113,62.32,112.31,62.78Z"/><path class="cls-15" d="M36,67.77c.91-.2,1.84-.34,2.34-1.29.65.48,1.57,1.22.78,1.85S36.95,68.62,36,67.77Z"/></g></g></svg>