<svg xmlns="http://www.w3.org/2000/svg" viewBox="0 0 135.88 125.92"><defs><style>.cls-1{fill:#503372;stroke:#503372;stroke-miterlimit:10;}.cls-2{fill:#f8cf16;}.cls-3{fill:#54c893;}.cls-4{fill:#d3fd5f;}</style></defs><title>magic</title><g id="Layer_2" data-name="Layer 2"><g id="Layer_1-2" data-name="Layer 1"><path class="cls-1" d="M133.82,115.78l.78,1.05c2,5.32.29,8-5.68,8.31-8.29.42-16.6.23-24.89.1-5.43-.08-11,1-16.24-1.3-5.22-3-7.65-8.18-9.91-13.34C73.28,100.13,71.54,89,70.7,77.67c-.74-1.21-1.07-3.19-3.06-2.55-1.5.48-1.22,2.2-1.35,3.48a136.44,136.44,0,0,1-4.07,23.58,73.85,73.85,0,0,1-2.48,7.59c-5.51,13.52-8.2,15.34-22.62,15.34-8.82,0-17.64,0-26.47,0a14.56,14.56,0,0,1-6.8-1.24c-4.13-1.94-4.16-4.77-1.59-8,9.55-12,10.82-26.42,12-40.88.13-1.57-.87-2.43-1.91-3.26-3.68-3-4.86-7-4.95-11.49-.1-5.15.08-10.31,0-15.46-.08-3.59,1.38-5.68,4.7-7.29C27.44,30,42.63,22.18,58,14.72c3.87-1.87,6.23-3.87,5.49-8.56-.37-2.3.07-4.85,3-5.49,2.55-.55,4.62.2,5.53,2.93,1.68,3.18.8,7.35,3.82,10l47.44,23.94c1.91,1,4,1.68,4.8,4,1.23,10.75,4.08,21.71-3.88,31.33A5.54,5.54,0,0,0,122.81,77C124,90.65,125.83,104.09,133.82,115.78Z"/><path class="cls-2" d="M67.56,46.69c16,0,32,.08,48-.07,3.18,0,4.55.69,4.24,4.1a90.59,90.59,0,0,0-.06,9.49c0,3.23-1.21,5.66-4.52,6.2s-5.43-1.48-6-4.64c-.45-2.66-1.46-4.54-4.32-4.41-2.54.12-3.68,1.91-4,4.34-.4,3.12-2.29,4.86-5.36,4.76-2.81-.1-4.56-1.72-4.86-4.7-.24-2.4-1.41-4.18-4-4.34-2.94-.19-4.06,1.74-4.45,4.33-.46,3.09-2.25,4.86-5.39,4.74-2.88-.11-4.58-1.94-4.93-4.73-.31-2.47-1.32-4.21-3.91-4.32-2.89-.12-4,1.74-4.36,4.4a4.93,4.93,0,0,1-5,4.65c-3.14.09-4.89-1.81-5.36-4.82-.37-2.37-1.35-4.31-4-4.33-2.8,0-4,1.86-4.38,4.51-.38,2.85-2.12,4.6-5,4.63-3.06,0-4.92-1.65-5.29-4.83-.28-2.4-1.46-4.16-4.07-4.22s-3.82,1.56-4.17,4c-.46,3.26-2.32,5.33-5.69,5-3.61-.35-4.78-2.94-4.91-6.36-.53-13.38-.57-13.38,12.76-13.38Z"/><path class="cls-3" d="M105.91,115.59c-3,0-6.05-.37-9,.08-5.66.88-8.33-2-10.59-6.66-4.86-10.12-5.94-21-7.27-31.88-.32-2.63,6.48-6.41,8.89-4.91,5.21,3.25,10.23,3.3,15.48.13,2.54-1.54,9.14,1.92,9.39,4.85,1,12.14,2.88,24.09,8.24,35.2,1.24,2.57.31,3.25-2.18,3.21C114.57,115.54,110.24,115.59,105.91,115.59Z"/><path class="cls-3" d="M29.57,115.59c-4.15,0-8.31,0-12.46,0-2.49,0-3.94-.32-2.47-3.35,5.22-10.78,6.88-22.43,8.11-34.16.42-4,6.49-7.41,10-5.42,4.77,2.71,9.64,3.06,14.09-.1,3.82-2.71,5.59,1.26,8.33,1.9,2.51.58,1,2.77.89,4.22a83.29,83.29,0,0,1-7,30.83c-2,4.5-4.82,6.8-10,6.15C35.92,115.27,32.73,115.59,29.57,115.59Z"/><path class="cls-4" d="M29.69,38.3C42.77,31.75,54.59,25.82,66.44,20a3.08,3.08,0,0,1,2.38-.09C80.66,25.71,92.45,31.63,104,38.3Z"/></g></g></svg>