<svg xmlns="http://www.w3.org/2000/svg" viewBox="0 0 126.13 135.65"><defs><style>.cls-1{fill:#503372;}.cls-2{fill:#d3fc5f;}.cls-3{fill:#d1fa60;}.cls-4{fill:#5eab9f;}.cls-5{fill:#54c793;}.cls-6{fill:#f78083;}.cls-7{fill:#7ee266;}.cls-8{fill:#7ee366;}.cls-9{fill:#f3cb1a;}.cls-10{fill:#15c7cc;}.cls-11{fill:#15c8cd;}.cls-12{fill:#f1c91b;}.cls-13{fill:#d9a1a9;}.cls-14{fill:#c2c1c8;}</style></defs><title>mall</title><g id="Layer_2" data-name="Layer 2"><g id="Layer_1-2" data-name="Layer 1"><path class="cls-1" d="M126.11,38.14c0-2.17-.07-4.34-1.32-6.25-.64-1.69-2-2.49-3.57-3.26Q93.55,14.84,65.93,1a7.18,7.18,0,0,0-7.07,0Q31.47,14.7,4,28.31c-2.68,1.33-4,3.09-4,6.2q.09,47.21,0,94.42c0,2.6.73,4.58,3.43,5.37a18.4,18.4,0,0,0,6.8,1.34q53.39,0,106.79,0c7.56,0,9-1.53,9.07-9.14Q126.19,82.3,126.11,38.14ZM115.51,91l-.06.06c-3.9.68-3.11-2.45-3.29-4.37-.41-4.34.59-8.93-2.54-12.73a3,3,0,0,0-.33-.93c-2-2.48-18.35-3.28-20.52-1-1.31,1.34-1.12,3-1.15,4.66q-.14,7.17-.3,14.34a3.31,3.31,0,0,1-2.31.52c-7.32.21-7.32.21-9.6-6.55a14.12,14.12,0,0,0-2-3.91c-.91-2.29-2.56-3.16-5.05-3.06-4,.16-7.95.16-11.91,0-3.64-.13-5.11,1.54-5,5.06,0,2.64-.12,5.28-.19,7.92-5.58.94-6.35.26-5.1-5.12,1.16-5,3-10-.4-14.86-1-1.91-2.76-2.15-4.66-2.14-6.8,0-13.61-.06-20.41,0-4.79.06-6,1.6-4.93,6.2,1.17,5.31,3.18,10.43,3.59,15.92-7.44,1.25-8.34.59-8.45-6.5-.09-6-.14-12,0-17.95.16-5.75,1.36-7,7.19-7.1,9.14-.19,18.28-.05,27.42-.06,21.27,0,42.54,0,63.82,0,6.42,0,6.72.2,6.6,6.78C115.79,74.41,116.51,82.71,115.51,91Z"/><path class="cls-2" d="M77.48,112.78q0,3.25,0,6.5c0,6.45,0,6.25-6.42,6.39-3.48.08-4.67-1-4.51-4.52.26-5.82.22-11.66,0-17.48-.18-5.56,3.9-3.08,6.32-3.46s5.08-.47,4.64,3.58A82.29,82.29,0,0,0,77.48,112.78Z"/><path class="cls-2" d="M105.32,112.67q0-2.49,0-5c0-8.35,0-8.26,8.16-7.6,2.14.17,2.9.87,2.87,3q-.12,9.7,0,19.4c0,2-.58,2.91-2.75,3.16-7.65.89-8.28.44-8.28-7Q105.32,115.65,105.32,112.67Z"/><path class="cls-3" d="M38.65,113.1a48.06,48.06,0,0,0,.06,7c.7,4.75-1.36,5.84-5.77,5.68-3.65-.13-5.47-.7-5.15-4.93a98.16,98.16,0,0,0,0-15.39c-.38-4.62,1.47-5.45,5.65-5.42,4,0,5.83.85,5.28,5.17A63.16,63.16,0,0,0,38.65,113.1Z"/><path class="cls-4" d="M96.56,112.83q0,3.24,0,6.47c0,6.45-1.45,7.6-7.73,6.48-2.16-.38-2.53-1.87-2.76-3.56a97.41,97.41,0,0,1-.25-19.36c.3-4.8,4.63-2.23,7.17-2.74,2.37-.48,3.74.51,3.6,3.25C96.43,106.52,96.55,109.68,96.56,112.83Z"/><path class="cls-4" d="M58.4,112.46q0,2.75,0,5.49c0,7.6-.71,8.17-8.22,7.24-1.83-.23-2.7-.85-2.69-2.73,0-6.49,0-13,0-19.47,0-4.4,3.36-2.82,5.44-2.82s5.46-1.58,5.47,2.8Q58.4,107.72,58.4,112.46Z"/><path class="cls-4" d="M19.48,112.72a47.29,47.29,0,0,0,.05,6.48c.67,4.82-1.16,6.31-6,6.11-3.88-.16-5.29-1.11-5.06-5.11a159.08,159.08,0,0,0,0-16.47c-.22-5,3.25-3.52,5.77-3.63s5.62-.84,5.25,3.63C19.28,106.71,19.48,109.73,19.48,112.72Z"/><path class="cls-5" d="M62.36,11.83,73.6,28.76H51.23Z"/><path class="cls-6" d="M30.85,76a32.83,32.83,0,0,0,3.48,0c3.21-.34,3.63,1.17,2.86,3.85s-1.39,5.46-2,8.21c-.54,2.5-1.42,4-4.56,4s-4.07-1.42-4.39-4.1a34.65,34.65,0,0,0-1.06-4.34C23.31,76,23.31,76,30.85,76Z"/><path class="cls-7" d="M100.46,29H86.18c-1.19,0-2.29-.07-3-1.22C80.91,24.39,78.65,21,76.4,17.66l.89-1.14L100.6,28Z"/><path class="cls-8" d="M47.38,16.55c-5.38,12.87-7,13.65-24,12Z"/><path class="cls-9" d="M77.37,43.22c1.41,5.09-1.78,4.82-5.45,5.08-4.53.32-5.31-1.29-5.5-5.53-.24-5.2,2.17-5.22,6.12-5.52C77.61,36.88,78,39.38,77.37,43.22Z"/><path class="cls-10" d="M96.47,42.8c1.16,4.69-1.18,5.39-5.34,5.48-4.42.1-5.6-1.21-5.59-5.59s1.46-5.56,5.74-5.6C95.76,37,97.47,38.41,96.47,42.8Z"/><path class="cls-9" d="M116.22,43.26c1.46,5.37-2.18,4.6-5.64,5-5.31.65-5.11-2.18-5.42-6.06-.43-5.39,2.72-4.59,6.11-4.93C116.24,36.79,116.91,39.28,116.22,43.26Z"/><path class="cls-11" d="M14.12,48c-4.42,1-5.73-.74-5.71-5.21s1.29-5.65,5.68-5.71,5.61,1.24,5.56,5.62S18.73,49.12,14.12,48Z"/><path class="cls-12" d="M38.46,42.79c1.38,5.17-1.41,5.31-5.32,5.54-4.7.27-5.3-1.55-5.43-5.67-.16-4.72,1.68-5.35,5.78-5.41C38,37.19,39.78,38.52,38.46,42.79Z"/><path class="cls-11" d="M52.79,48c-4.68,1.17-5.39-1.14-5.48-5.33-.1-4.46,1.21-5.61,5.6-5.58s5.59,1.41,5.64,5.75C58.59,47.36,57.15,49,52.79,48Z"/><path class="cls-13" d="M102.47,84.82c0,7.18-.6,7.93-5.59,7.06-1-.18-2.12-.27-2.15-1.53-.09-3.62-.42-7.29.08-10.84.39-2.77,3.19-1.35,4.95-1.61s2.83.48,2.73,2.47C102.41,81.86,102.47,83.34,102.47,84.82Z"/><path class="cls-14" d="M62.19,85c2.42-.22,4.23-.2,4.28,3.15S65,92,62.25,92s-3.88-.55-3.89-3.57S59.63,84.58,62.19,85Z"/></g></g></svg>