<svg xmlns="http://www.w3.org/2000/svg" xmlns:xlink="http://www.w3.org/1999/xlink" viewBox="0 0 167.79 84.06"><defs><style>.cls-1{fill:url(#linear-gradient);}</style><linearGradient id="linear-gradient" x1="53.35" y1="30.08" x2="181.43" y2="138.47" gradientUnits="userSpaceOnUse"><stop offset="0" stop-color="#503372"/><stop offset="1" stop-color="#ed1e79"/></linearGradient></defs><title>mom-m</title><g id="Layer_2" data-name="Layer 2"><g id="Layer_1-2" data-name="Layer 1"><path class="cls-1" d="M164.15,54.33c-10.39-15.05-20.94-30-31.45-45-8.76-12.47-23.71-12.42-32.47.1Q83.16,33.81,66,58.33L51.5,37.56C60,36.91,65.55,32.85,69,25.4l7.1,10c1.54-2.16,2.85-4.08,4.25-5.92.7-.92.27-1.55-.26-2.3-4.66-6.6-9.12-13.34-14-19.79C58.8-2.29,44-2.59,36.85,7.23,25.24,23.09,14,39.24,3,55.51c-5.66,8.35-3,19.69,5.27,25.27a18.49,18.49,0,0,0,25.65-4.54C37.69,71,41.31,65.73,45,60.47s3.59-5.16-.23-10.21c-1.05-1.39-1.55-1.3-2.46.06-1.86,2.78-3.85,5.48-5.95,8.43-3.51-7.58-9.16-11.55-17.45-12.18L33.66,25.5c1.26,2,2.21,3.73,3.32,5.31q15.71,22.5,31.46,45a18.69,18.69,0,0,0,31,.09c3.3-4.7,6.54-9.43,9.81-14.15,4.53-6.53,4.53-6.53-.63-13l-7.08,10C98.06,51.24,92.42,47.24,84,46.57L98.82,25.43c.84,1.47,1.39,2.61,2.11,3.64C112,44.94,123,60.86,134.28,76.62a17,17,0,0,0,16.86,7.24C165.73,81.92,172.53,66.45,164.15,54.33ZM29.5,65.4a10.72,10.72,0,0,1-21.43.2,10.72,10.72,0,1,1,21.43-.2ZM40.7,19A10.65,10.65,0,0,1,51.33,8.14,10.52,10.52,0,0,1,62,18.61,10.57,10.57,0,0,1,51.4,29.47,10.72,10.72,0,0,1,40.7,19ZM94.54,65.51a10.61,10.61,0,1,1-21.21-.3A10.38,10.38,0,0,1,83.91,54.73,10.54,10.54,0,0,1,94.54,65.51ZM105.9,18.95a10.64,10.64,0,1,1,10.62,10.52A10.63,10.63,0,0,1,105.9,18.95Zm25.58,39.82L116.65,37.6c8.25-.7,14-4.54,17.45-12.28L149,46.58C140.59,47.18,135,51.25,131.48,58.77ZM149,76a10.64,10.64,0,1,1,.23-21.28A10.64,10.64,0,1,1,149,76Z"/></g></g></svg>