<svg xmlns="http://www.w3.org/2000/svg" viewBox="0 0 134.96 143.81"><defs><style>.cls-1{fill:#dd1e6a;}.cls-2{fill:#503372;}</style></defs><title>mom</title><g id="Layer_2" data-name="Layer 2"><g id="Layer_1-2" data-name="Layer 1"><path class="cls-1" d="M72.23,103.08q0-18.06,0-36.13a22,22,0,0,1,.05-2.29,2.74,2.74,0,0,1,5.35-.49A13.52,13.52,0,0,1,78,67.44q0,35.62,0,71.24a11.93,11.93,0,0,1-.34,3,2.6,2.6,0,0,1-3,2.09A2.55,2.55,0,0,1,72.25,141c0-2,0-3.9,0-5.85Q72.22,119.11,72.23,103.08Z"/><path class="cls-1" d="M61.39,40.51q0,17.57,0,35.13a18,18,0,0,1-.08,2.54,2.54,2.54,0,0,1-2.55,2.37,2.58,2.58,0,0,1-2.88-2,10.37,10.37,0,0,1-.28-2.76q0-35.13,0-70.26a12.7,12.7,0,0,1,.29-3A2.55,2.55,0,0,1,58.7.45a2.64,2.64,0,0,1,2.58,2.38,15.44,15.44,0,0,1,.1,2.54Q61.39,22.94,61.39,40.51Z"/><path class="cls-2" d="M72.25,2.89c0-2.52,2.16-3.64,4.6-2.33C82,3.32,87.09,6.21,92.2,9.07l39.69,22.32c.37.21.75.4,1.11.62,1.67,1,2.56,2.4,1.45,4.23-1,1.66-2.58,1.73-4.22.81l-10.65-6L74.77,5.92C73.49,5.2,72.18,4.53,72.25,2.89Z"/><path class="cls-2" d="M75,44.46a6.3,6.3,0,0,1,2.71,1l54.76,30.75c2.32,1.3,3.07,2.86,2,4.42-1.36,2-3.07,1.58-4.89.56Q102,65.68,74.4,50.22c-1.59-.89-2.55-2-2-3.89A2.6,2.6,0,0,1,75,44.46Z"/><path class="cls-2" d="M74.91,21.76a4.8,4.8,0,0,1,2.61.87L131.62,53c3.06,1.72,3.94,3.3,2.9,5s-2.77,1.71-5.85,0Q101.73,42.85,74.82,27.7A8.31,8.31,0,0,1,73,26.38a2.69,2.69,0,0,1-.47-3.08A2.5,2.5,0,0,1,74.91,21.76Z"/><path class="cls-2" d="M3,60.82a5.36,5.36,0,0,1,2.59,1l53.1,30.59a9.84,9.84,0,0,1,1.48,1,2.79,2.79,0,0,1-2.78,4.79A13.47,13.47,0,0,1,55.18,97q-26-15-52-30A11.78,11.78,0,0,1,.9,65.44a2.47,2.47,0,0,1-.52-3A2.67,2.67,0,0,1,3,60.82Z"/><path class="cls-2" d="M58.54,142.86a5.17,5.17,0,0,1-2.37-.83L2.62,111.19a12.16,12.16,0,0,1-1.08-.67c-1.32-1-2-2.17-1.08-3.71a2.71,2.71,0,0,1,3.93-1.15c2.84,1.52,5.62,3.14,8.41,4.75l46,26.54a4.62,4.62,0,0,1,2.25,2A2.8,2.8,0,0,1,58.54,142.86Z"/><path class="cls-2" d="M3.38,83.43c.52.24,1.31.55,2,1q26.46,15.23,52.9,30.49c.44.25.88.51,1.31.79,1.57,1,2.32,2.35,1.28,4.07s-2.56,1.78-4.2.84l-17.42-10Q21.2,100.14,3.13,89.71a11.33,11.33,0,0,1-2.27-1.6,2.39,2.39,0,0,1-.46-3A3.15,3.15,0,0,1,3.38,83.43Z"/><path class="cls-1" d="M90.59,102.91q0-12.46,0-24.93a4.85,4.85,0,0,1,.67-3.17A2.74,2.74,0,0,1,94,73.73a2.49,2.49,0,0,1,2.21,1.85,9.6,9.6,0,0,1,.27,2.51q0,25.05,0,50.11c0,.25,0,.51,0,.76,0,1.91-.69,3.46-2.84,3.49s-3-1.56-3-3.59Q90.59,115.88,90.59,102.91Z"/><path class="cls-1" d="M43,40.47c0,8.05,0,16.1,0,24.16a8.87,8.87,0,0,1-.34,2.74,2.57,2.57,0,0,1-2.74,1.84,2.73,2.73,0,0,1-2.58-2.11,8.57,8.57,0,0,1-.18-2.27q0-24.54,0-49.08a11.16,11.16,0,0,1,.09-2A2.72,2.72,0,0,1,40,11.32a2.63,2.63,0,0,1,2.72,2.23A12.53,12.53,0,0,1,43,16.32Q43,28.39,43,40.47Z"/><path class="cls-1" d="M114.85,102.82c0,5.26,0,10.51,0,15.77,0,1.88-.39,3.51-2.59,3.65s-3.16-1.48-3.17-3.45q-.08-16,0-32c0-1.84.77-3.41,3-3.39,2.41,0,2.8,1.72,2.79,3.69C114.83,92.31,114.85,97.56,114.85,102.82Z"/><path class="cls-1" d="M24.22,40.14c0,4.66,0,9.33,0,14,0,1.9-.41,3.54-2.59,3.65s-3.15-1.57-3.16-3.51q-.1-14.37,0-28.75c0-1.92.8-3.64,3.12-3.52s2.63,1.74,2.62,3.63C24.19,30.47,24.22,35.3,24.22,40.14Z"/><path class="cls-1" d="M133.57,102.92c0,1.52.1,3.06,0,4.57-.15,1.8-1.05,3.11-3,3.07s-2.75-1.39-2.75-3.24c0-3,0-6.1,0-9.15,0-1.76.77-3,2.66-3.07a2.76,2.76,0,0,1,3.06,2.74,47.49,47.49,0,0,1,0,5.07Z"/><path class="cls-1" d="M5.8,41.13a38.76,38.76,0,0,1,0,4,2.71,2.71,0,0,1-2.85,2.66A2.65,2.65,0,0,1,.1,45.16C0,42.38,0,39.59.1,36.81a2.69,2.69,0,0,1,2.85-2.67,2.7,2.7,0,0,1,2.82,2.69C5.91,38.25,5.8,39.7,5.8,41.13Z"/></g></g></svg>