<svg xmlns="http://www.w3.org/2000/svg" xmlns:xlink="http://www.w3.org/1999/xlink" viewBox="0 0 115.69 116.26"><defs><style>.cls-1{fill:url(#linear-gradient);}.cls-2{fill:#503372;}.cls-3{fill:#dd1e6a;}.cls-4{fill:#f78083;}</style><linearGradient id="linear-gradient" x1="76.91" y1="39.08" x2="115.69" y2="39.08" gradientUnits="userSpaceOnUse"><stop offset="0" stop-color="#503372"/><stop offset="1" stop-color="#ed1e79"/></linearGradient></defs><title>pictionary</title><g id="Layer_2" data-name="Layer 2"><g id="Layer_1-2" data-name="Layer 1"><path class="cls-1" d="M77.2.93Q95.83,19.37,114.46,37.8a3.86,3.86,0,0,1,1.23,3q-.18,18.23-.29,36.47l-38.3,0Q77,39.39,76.91,1.56A2.67,2.67,0,0,0,77.2.93Z"/><path class="cls-2" d="M38.4,115.39Q19.8,97,1.18,78.55a3.91,3.91,0,0,1-1.18-3Q0,57.73.06,39.91A3.6,3.6,0,0,1,.5,38.76l37.7.05c.06,1.67.17,3.34.17,5Q38.4,79.61,38.4,115.39Z"/><path class="cls-3" d="M77.1,77.21l38.3,0c-1.26,2.56-3.62,4.15-5.55,6.09-10,10.12-20.15,20.12-30.16,30.26a7.78,7.78,0,0,1-6.16,2.67c-10.33-.16-20.66,0-31-.06-1.37,0-2.81.3-4.06-.59l1.19-1.11Z"/><path class="cls-4" d="M39.67,114.49l-1.19,1.11-.08-.22q0-35.78,0-71.56c0-1.67-.11-3.34-.17-5q0-19,.08-38c.77-1.17,2-.79,3-.79q16.45,0,32.89,0c1,0,2.27-.38,3,.87a2.69,2.69,0,0,1-.29.63Q58.6,19.71,40.26,37.84C38.73,39.35,39,41.15,39,42.93Q39,76.48,39,110C39,111.53,38.61,113.13,39.67,114.49Z"/><path class="cls-3" d="M38.29.85q0,19-.08,38L.5,38.76c4-5.19,9-9.47,13.63-14.1C22.1,16.64,30.22,8.78,38.29.85Z"/><path class="cls-4" d="M39.67,114.49c-1.07-1.36-.64-3-.64-4.46q0-33.55,0-67.11c0-1.78-.29-3.58,1.25-5.09Q58.63,19.74,76.91,1.56q.09,37.82.18,75.65Z"/></g></g></svg>