<svg xmlns="http://www.w3.org/2000/svg" viewBox="0 0 126.45 101.56"><defs><style>.cls-1{fill:#503372;}.cls-2{fill:#dd1e6a;}.cls-3{fill:#f7cf16;}</style></defs><title>spellBee</title><g id="Layer_2" data-name="Layer 2"><g id="Layer_1-2" data-name="Layer 1"><path class="cls-1" d="M43.14,46.83c-6.21,3.67-11.6,7.08-17.2,10.11-4.12,2.23-8.37,4.25-13.43,3.2A15.6,15.6,0,0,1,.35,41.62,15,15,0,0,1,19.06,30.1c4.7,1.34,9.18,3.46,13.65,5.19C25.6,26.77,16.06,24.41,5.77,28.7c1.78-7.9,13-11.89,20.19-6.61,5,3.7,9.22,8.48,13.76,12.82.95.91,1.75,2,3.35,3.8,0-5.55-.08-10.16,0-14.76.16-7.66,3-14.13,9.1-18.92A23.28,23.28,0,0,1,83,6.71,23.58,23.58,0,0,1,85.23,37.8c-.71.93-1.45,1.83-2.23,2.79,2.77,1.44,5.45,2.56,7.86,4.12A30.83,30.83,0,1,1,43.7,73.9c-.65-7.08-.41-14.24-.55-21.37C43.11,50.86,43.14,49.19,43.14,46.83Zm7.15-17.69.33,0c0,2.42.11,4.84,0,7.24s.74,3.26,3.1,3.2c4.58-.13,9.18.08,13.76-.13A16,16,0,0,0,82.79,24.09C83.25,16.72,77.24,9,70,7.78c-8.69-1.53-16.37,2.79-18.66,11C50.44,22.07,50.61,25.67,50.29,29.14ZM97.59,67.33c-1.38-2.62-.09-6.41-4.41-6.41-13.26,0-26.53,0-39.79,0-2.72,0-2.78,1.48-2.78,3.48s0,3.5,2.74,3.48c14-.09,28,0,42-.06A15.07,15.07,0,0,0,97.59,67.33ZM96.4,75.5H51.68c.62,6,1.31,6.65,6.69,6.65H90.66C95.25,82.14,96.42,80.82,96.4,75.5ZM89.34,53.72l.57-1.32c-3.55-1.58-7-4.18-10.66-4.52C70.38,47,61.41,47.23,52.48,47a5.1,5.1,0,0,0-1.51.41v6.26Zm-1.89,35.7H60.62C68.3,95.53,80.69,95.52,87.44,89.42Z"/><path class="cls-2" d="M50.29,29.14c.33-3.46.16-7.06,1.08-10.36,2.3-8.21,10-12.53,18.66-11C77.24,9,83.25,16.72,82.79,24.09A16,16,0,0,1,67.45,39.48c-4.58.2-9.18,0-13.76.13-2.36.07-3.25-.86-3.1-3.2s0-4.83,0-7.24Z"/><path class="cls-2" d="M97.59,67.33a15.07,15.07,0,0,1-2.27.44c-14,0-28,0-42,.06-2.74,0-2.74-1.51-2.74-3.48s.06-3.49,2.78-3.48c13.26.09,26.53,0,39.79,0C97.51,60.92,96.21,64.71,97.59,67.33Z"/><path class="cls-2" d="M96.4,75.5c0,5.32-1.15,6.64-5.74,6.64H58.37c-5.39,0-6.08-.66-6.69-6.65Z"/><path class="cls-2" d="M89.34,53.72H51V47.46A5.1,5.1,0,0,1,52.48,47c8.93.18,17.9,0,26.77.83,3.66.35,7.11,2.95,10.66,4.52Z"/><path class="cls-2" d="M87.44,89.42c-6.76,6.1-19.14,6.11-26.82,0Z"/><path class="cls-3" d="M77.85,65.31l2.32,1.82c.81-1.95,2-1.91,3.54-.5l-2.51,4.84-5.53-4.25Z"/><path class="cls-3" d="M103.34,70.76a8.58,8.58,0,0,1-.67-.73c-.3-.43-.58-.88-.92-1.42l3.68-3.48c.63.74,1.2,1.44,1.8,2.1a1.65,1.65,0,0,0,.73.48c1.36.37.69,1.4.56,2.09-.05.29-1,.65-1.42.59C105.83,70.23,104.58,69.26,103.34,70.76Z"/><path class="cls-3" d="M112.82,48.67c0,2.76-.37,3.27-2,2.7a1.49,1.49,0,0,1-.76-1.23c.34-1.32-1.23-3,.6-4,1.41-.71,1.92-.31,2.1,1.24C112.82,48,112.81,48.49,112.82,48.67Z"/><path class="cls-3" d="M86.86,73.47l-5.08-1.89L83,69.11a19,19,0,0,1,4,1.55c.47.31.27,1.62.38,2.48Z"/><path class="cls-3" d="M110.07,38.84,112.41,44l-2.71.69A16.06,16.06,0,0,1,108.08,41c-.1-.65.85-1.47,1.33-2.21Z"/><path class="cls-3" d="M106.16,64l2.19-4.52,2.61.94-2.39,5Z"/><path class="cls-3" d="M100.41,69.43l1.3,2.43C100,72.44,98.53,73,97,73.44c-.22.06-.83-.52-.92-.89-.14-.62-.72-1.48.45-1.84S98.94,69.91,100.41,69.43Z"/><path class="cls-3" d="M74.5,65.82l-3-4.58,2.34-1.42L76.67,64Z"/><path class="cls-3" d="M78,71.25l2.3,1.53L76.83,77.1l-2-1.9Z"/><path class="cls-3" d="M73.34,38.63a5.67,5.67,0,0,1,5-1.32,2.25,2.25,0,0,1,1.09.76c-.33.7-.66,1.61-1.26,1.91a4.63,4.63,0,0,1-2.89.41C74.59,40.22,74,39.29,73.34,38.63Z"/><path class="cls-3" d="M82.75,44.35c-.56-.78-1-1.5-1.57-2.15-1.42-1.7-1.43-1.69.64-3.58,1,1.3,2.06,2.53,2.93,3.89C85.28,43.32,84.86,43.68,82.75,44.35Z"/><path class="cls-3" d="M71.61,45.68l-2.73-.84,2.65-5C73.9,41,74,41.21,72.89,43.07,72.45,43.85,72.1,44.68,71.61,45.68Z"/><path class="cls-3" d="M86.06,45l1.1,5.53c-1.23-.26-2.49.93-2.95-.66C83,45.78,83.1,45.77,86.06,45Z"/><path class="cls-3" d="M86.35,57.73c-2.38-.21-2.38-.21-2.2-2.46a9.41,9.41,0,0,0,.06-1.44c-.11-1.51.81-1.58,1.94-1.51,1.33.08,1,1,.93,1.75-.08,1-.25,2-.42,3A2.48,2.48,0,0,1,86.35,57.73Z"/><path class="cls-3" d="M111.32,58.66l-2.47-.78,1-4.69c2.5-.45,2.83-.14,2.38,2.22-.15.78-.33,1.55-.52,2.32A8.56,8.56,0,0,1,111.32,58.66Z"/><path class="cls-3" d="M63.84,83.52c-.71-2.52-.71-2.51,1.69-3a4.8,4.8,0,0,0,1.22-.33c1.33-.68,1.76.11,2.14,1.17.46,1.27-.59,1.28-1.25,1.5a23.7,23.7,0,0,1-2.77.66A5.63,5.63,0,0,1,63.84,83.52Z"/><path class="cls-3" d="M98.06,41.54l-2.39-1.45c1.37-1.27,2.51-2.39,3.75-3.4a1.37,1.37,0,0,1,1.24.15c.24.66.57,1.65.26,2.08A18.82,18.82,0,0,1,98.06,41.54Z"/><path class="cls-3" d="M97,53.75a8.67,8.67,0,0,1-1.59.94c-.75.26-1.36,0-1.42-.92s-.15-2.12-.26-3.17S94,49.19,95,49.23s1.57.13,1.54,1.3a26.11,26.11,0,0,0,.22,2.86Z"/><path class="cls-3" d="M95,42.15c2.63.5,2.67.56,2.14,2.73a6.15,6.15,0,0,0-.28,1.39c0,1.49-.92,1.55-2,1.41-1.31-.17-.93-1-.76-1.78C94.34,44.64,94.67,43.38,95,42.15Z"/><path class="cls-3" d="M97.22,56,99,60.61l-2.42,1.3c-.62-1.59-1.26-3-1.72-4.51C94.56,56.55,94.9,56.38,97.22,56Z"/><path class="cls-3" d="M97.42,63.54,99.73,62a17.09,17.09,0,0,1,2.78,3.16c.29.55-.44,1.63-.71,2.47l-.63.07Z"/><path class="cls-3" d="M50.22,77.71c2-1.92,2-1.91,3.61-.31.6.6,1.26,1.13,2,1.81L54.4,81.66Z"/><path class="cls-3" d="M108.38,37.33l-1.47,1.88a12.85,12.85,0,0,1-3.45-.9c-.65-.38-.87-1.47-1.4-2.46A7.11,7.11,0,0,1,108.38,37.33Z"/><path class="cls-3" d="M84.51,64.88,82,63.81a21.47,21.47,0,0,1,1.43-4.18c.26-.45,1.57-.3,2.39-.42l.37.48Z"/><path class="cls-3" d="M122.72,67.24c-1.54.77-2.87,1.51-4.27,2.07-.28.11-1-.34-1.21-.7-.28-.57-.89-1.35.22-1.86a30.72,30.72,0,0,1,3-1.46C122,64.77,121.84,66.38,122.72,67.24Z"/><path class="cls-3" d="M70.59,59.37c-.48-1.41-1-2.82-1.4-4.29-.07-.29.48-1,.87-1.09.58-.18,1.47-.8,1.79.44.17.67.4,1.32.62,2C73.27,58.68,73.27,58.68,70.59,59.37Z"/><path class="cls-3" d="M115.11,67.65c1,2.56.92,2.72-1.57,3.06-.58.08-1.17.06-1.75.09-.82,0-1.63.13-1.6-1.13,0-1.06.26-1.69,1.53-1.66A25.15,25.15,0,0,0,115.11,67.65Z"/><path class="cls-3" d="M71.24,52c-.61.11-1.08.16-1.54.28-.85.21-1.2-.17-1.21-1,0-1,0-2,0-3s.19-1.61,1.43-1.47,1.56.5,1.37,1.71A23.18,23.18,0,0,0,71.24,52Z"/><path class="cls-3" d="M61.71,81c.49,2.57.16,2.91-2.3,2.38-.31-.07-.63-.11-.93-.18C56,82.56,55.9,82.31,57.34,80Z"/><path class="cls-3" d="M71.14,81.48c-1.79-2-1.77-2.18.16-3.49.74-.51,1.46-1,2.34-1.68l1.91,2Z"/><path class="cls-3" d="M94.12,71.22c.11.64.17,1.06.27,1.46.26,1-.22,1.35-1.17,1.31s-1.8,0-2.71,0-1.68-.11-1.55-1.39c.11-1.12.49-1.58,1.71-1.4A24.6,24.6,0,0,0,94.12,71.22Z"/><path class="cls-3" d="M126.45,64l-2.21,2-1.75-2.09,1.9-1.78Z"/><path class="cls-3" d="M50.93,72.21c1.17,2.53,1.14,2.58-1.68,3.4-.19-.89-.68-1.86-.45-2.61C48.94,72.55,50.21,72.45,50.93,72.21Z"/></g></g></svg>