<svg xmlns="http://www.w3.org/2000/svg" viewBox="0 0 125.05 135.66"><defs><style>.cls-1{fill:#503372;}.cls-2{fill:#13cdcd;}.cls-3{fill:#d81e6c;}.cls-4{fill:#f7cf16;}.cls-5{fill:#ec7b86;}.cls-6{fill:#f57e84;}.cls-7{fill:#ef7c85;}.cls-8{fill:#f47e85;}</style></defs><title>toratora</title><g id="Layer_2" data-name="Layer 2"><g id="Layer_1-2" data-name="Layer 1"><path class="cls-1" d="M106.89,102l-5.2-4.89a4,4,0,0,1-2-3.29,35.33,35.33,0,0,1,0-5.51c2.94-5.5,1.68-10.82-.59-16.17-2.33-5.51-4-11.26-6.09-16.85-.64-1.35-1.58-2.13-3.15-1.58-1.36.48-2.44,1.46-2.3,2.9.75,7.71,1,15.47,2.29,23.13.25,1.55,1.46,2.55,2.57,3.56a20.6,20.6,0,0,1,3.61,4.22c2.14,5.55,2,10.77-2.44,15.23-4,4-8.6,4.71-13.71,2.37-9.42-6.55-10.2-13.88-2.09-21.42a4.06,4.06,0,0,0,1.3-3.9q-1.17-11.81-2.3-23.63c-1.79-2-3.95-2.29-6.32-1.22s-2,3.29-2,5.21c-.07,14.33-.1,28.66,0,43,0,6.69.93,7.41,7.47,7.46,10.66.08,21.32-.23,32,.16a5.25,5.25,0,0,1,3.16,3.24c2.52,5.58,1.69,11.37.78,17.07-.4,2.5-2.54,3.77-5,4.27a30.32,30.32,0,0,1-6,.35q-37.87,0-75.74,0a19.21,19.21,0,0,1-8.27-1.37,7.33,7.33,0,0,1-2.09-1.2c-2.6-3-1.69-19.28,1.17-22.22,12.12-.77,24.25-.33,36.37-.23,4.21,0,5.28-1.24,5.22-5.32-.23-15.3-.18-30.6,0-45.89,0-3.57-1.17-5.3-4.74-5.38-2.54-.06-4.12.78-4.26,3.61C48.09,64.47,47.3,71.24,46.65,78c-.25,2.64.94,4.84,2.14,7L51,87.94q4.5,7.89-.85,14.12c-3.7,4.32-8.19,5.29-14.35,3.08-3-1.72-5.64-3.82-7-7.16-2.21-1.9-2.41-4.38-2-7,.63-2.43,1.54-4.91,3.52-6.39,3.89-2.91,4.81-7,5-11.33.21-5.77,1.38-11.45,1.34-17.22.32-1.73-.64-2.41-2.17-2.65a2.69,2.69,0,0,0-3.12,1.9,257.38,257.38,0,0,0-8.6,25c-.57,1.91.48,3.56,1.29,5.21,2.23,5.71,1.32,10.81-3.11,15.09-4.16,4-8.64,4.42-14.06,1.43C2.4,99.07-.66,95.17.12,89.59.94,83.74,4.45,80,10.48,79c1.79-.28,1.86-1.71,2.28-2.87,2.39-6.74,4.63-13.53,7.1-20.23.8-2.18.74-3.52-1.44-4.91-3.81-2.44-5.25-6.22-5.11-10.73.12-4.16.16-8.33,0-12.49-.14-3.12,1.21-4.91,3.91-6.24Q37.76,11.39,58.23,1A7.69,7.69,0,0,1,65.8,1q20.69,10.49,41.48,20.79A7.65,7.65,0,0,1,110.91,25c1.73,9.35,3.74,18.75-3.73,26.81a4.42,4.42,0,0,0-1.2,4.6c2.43,6.9,4.66,13.88,7.16,20.75.29.79,1.1,1.22,1.74,1.75A17.28,17.28,0,0,1,123.72,86c2.41,5.24,1.52,10.77-2.33,14.52S112.62,104.85,106.89,102Z"/><path class="cls-2" d="M62.27,30.9c11.65,0,23.31.14,35-.08,3.67-.07,5.28.89,4.76,4.71-.24,1.8,0,3.66-.08,5.49s-.85,2.87-2.67,3A2.73,2.73,0,0,1,96,41.61c-.41-2.56-1.42-4.49-4.33-4.54s-3.88,2.07-4.53,4.45A3,3,0,0,1,83.93,44c-1.64-.07-2.35-1.18-2.68-2.52-.61-2.43-1.53-4.53-4.48-4.44-2.59.08-3.69,1.77-4.17,4.16-.31,1.52-1.12,2.8-3,2.81s-2.69-1.12-3.1-2.69c-.64-2.44-1.74-4.44-4.65-4.28s-3.77,2.21-4.18,4.73a2.65,2.65,0,0,1-2.87,2.25,2.7,2.7,0,0,1-2.91-2.21c-.61-2.58-1.48-4.89-4.73-4.79-3,.09-3.74,2.29-4.3,4.67A2.74,2.74,0,0,1,40,44.05a2.8,2.8,0,0,1-3.09-2.62c-.35-2.42-1.42-4.16-4-4.34-2.88-.2-4,1.6-4.59,4.21A3.09,3.09,0,0,1,24.75,44c-2.08-.27-2.5-1.91-2.75-3.62,0-.33,0-.66,0-1-.58-8.49-.58-8.49,7.86-8.49Z"/><path class="cls-3" d="M62.38,119.11c11.81,0,23.63,0,35.44,0,2.3,0,4.22-.1,4.22,3.24,0,3.1-1.48,3.5-4,3.49q-35.94-.08-71.87,0c-2.35,0-4.17-.16-4.29-3.35-.13-3.76,2.21-3.35,4.57-3.35Q44.41,119.12,62.38,119.11Z"/><path class="cls-4" d="M37.22,21.6C45.65,17.38,53,13.73,60.37,10c1.62-.83,2.84-.28,4.19.4L87,21.6Z"/><path class="cls-5" d="M14.93,90.8c0,1.77-.9,3-2.59,3.08a3,3,0,0,1-3.27-3A2.55,2.55,0,0,1,11.69,88,2.77,2.77,0,0,1,14.93,90.8Z"/><path class="cls-6" d="M87.28,93.33c-.16,1.74-.88,3-2.62,3.1a2.73,2.73,0,0,1-3.25-2.79,2.62,2.62,0,0,1,2.54-3C85.91,90.46,86.89,91.65,87.28,93.33Z"/><path class="cls-7" d="M112.13,94c-1.81-.31-3-1.42-2.92-3.27a2.7,2.7,0,0,1,2.92-2.7c2,.06,3,1.2,2.87,3.17C114.91,92.88,113.89,93.77,112.13,94Z"/><path class="cls-8" d="M40.08,90.59a3,3,0,0,1,2.8,3.29A2.48,2.48,0,0,1,40,96.42a2.78,2.78,0,0,1-3-2.66C36.9,91.79,38.2,90.89,40.08,90.59Z"/></g></g></svg>