<svg xmlns="http://www.w3.org/2000/svg" viewBox="0 0 122.96 117.21"><defs><style>.cls-1,.cls-3{fill:#503372;}.cls-1{stroke:#503372;stroke-miterlimit:10;stroke-width:12.96px;}.cls-2{fill:#dd1e6a;}.cls-4{fill:#54c893;}.cls-5{fill:#f7cf16;}.cls-6{fill:#4b31a9;}.cls-7{fill:#464646;}.cls-8{fill:#fefefe;}.cls-9{fill:#f1efe6;}.cls-10{fill:#fcf2d0;}.cls-11{fill:#c8e4f5;}.cls-12{fill:#fdfdfd;}</style></defs><title>treasure</title><g id="Layer_2" data-name="Layer 2"><g id="Layer_1-2" data-name="Layer 1"><path class="cls-1" d="M56.3,20H95.8c1.69,0,1.69,0,1.69-1.75,0-3.4,0-6.8,0-10.19,0-1.23.47-1.7,1.68-1.61a15.13,15.13,0,0,1,6.14,1.61,7.54,7.54,0,0,1,4.4,7.19c-.06,17.3,0,34.61-.05,51.91a4.47,4.47,0,0,0,1.08,3c6,7.61,7.4,16.07,3.81,25s-10.5,14-20,15.28A24.32,24.32,0,0,1,70.24,97.86a2.08,2.08,0,0,0-2.14-1.29q-24,.06-47.91,0c-1.19,0-1.48.29-1.45,1.47.09,3.44,0,6.89,0,10.33,0,1.27-.41,1.77-1.71,1.71a13.93,13.93,0,0,1-6.71-1.93,7.47,7.47,0,0,1-3.85-6.86q.06-27.43,0-54.87c0-5.59.17-11.19,0-16.77-.21-5.4,3-7.75,6.77-9A15.68,15.68,0,0,1,18.13,20Z"/><path class="cls-2" d="M69.73,61.86a8.54,8.54,0,0,0,3.05,7.25c.6.51.28.76,0,1.16A24.84,24.84,0,0,0,67.36,88.8a31.72,31.72,0,0,0,1.26,5.65c-.38,0-.68,0-1,0H23.86c-.27,0-.53,0-.8,0a2.23,2.23,0,0,1-.55-1.86q0-19,0-38A4.34,4.34,0,0,1,22.74,53c.35-.83,1.15-1.2,1.79-1.74.31-.26.66-.55.46-1s-.6-.29-.94-.23-.79.19-1.13-.15a3.61,3.61,0,0,1-.37-2.2c0-5.26,0-10.52,0-15.78,0-2.11,0-2.1-2-2.46a11,11,0,0,1-6.21-3.1c-.83-.87-1.77-1.84-1.16-3.29a11.89,11.89,0,0,1,5.45-1q39.76,0,79.51,0a13.84,13.84,0,0,0,9.33-3v47.6c-.25.12-.39-.1-.55-.22a24.12,24.12,0,0,0-18.54-4.93c-1.2.17-1.59-.14-1.75-1.27a6.89,6.89,0,0,0-1.35-2.88c-.47-.67-1.29-1.12-.83-2.27.27-.67-.79-1.31-1.47-.8s-1.17.29-1.8.06c-4.88-1.73-10.37,1.4-11.13,6.3-.25.57-.71.4-1.13.31a6.18,6.18,0,0,0-2.6.25c-.34.08-.72.23-.68.68s.48.46.81.48a7.41,7.41,0,0,0,2.2-.35C69,61.93,69.31,61.59,69.73,61.86Z"/><path class="cls-3" d="M13.13,23.06c.54,3.14,2.94,4.38,5.51,5.41a7.77,7.77,0,0,0,2.72.57c1.17,0,1.75.46,1.73,1.86-.09,5.85,0,11.7,0,17.54,0,.52-.16,1.08.28,1.53a4.9,4.9,0,0,1,0,2.73,2.47,2.47,0,0,0-.26,1.42q0,20.16,0,40.33c-1.37,0-3.11.49-4-.17s-.27-2.5-.27-3.82q0-27.4,0-54.81c0-2,0-1.94-2-2.11a11.39,11.39,0,0,1-5.85-2c-3-2.14-3-5.22,0-7.38A5.3,5.3,0,0,1,13.13,23.06Z"/><path class="cls-4" d="M114.32,85.78A22.52,22.52,0,1,1,75.18,70.69C76.33,69.37,76.3,69,74.82,68a6.52,6.52,0,1,1,10-5.75c.11,1.82.33,2,2.09,1.63A22.5,22.5,0,0,1,114,82.06,14.59,14.59,0,0,1,114.32,85.78Z"/><path class="cls-5" d="M69.73,61.86c-1.16,1-2.61.91-4,1-.47,0-.75-.41-.77-.93s.21-1,.69-1c1.35-.11,2.7-1.05,4.06,0,0,0,.2-.14.31-.21A2.11,2.11,0,0,1,69.73,61.86Z"/><path class="cls-6" d="M97.56,34.49a1.46,1.46,0,0,1-1,1.31,22.7,22.7,0,0,0-4.36,3.28c-.5.42-.51.7,0,1.13a23.23,23.23,0,0,0,4.34,3.31c1.24.66,1.39,1.54.43,2.57-.79.85-1.61,1.68-2.45,2.47s-1.86.79-2.47-.4a24.33,24.33,0,0,0-2.91-4c-.67-.82-1.17-.74-1.78.05a38.27,38.27,0,0,0-2.95,4c-.72,1.23-1.56,1.34-2.57.36S80.13,46.88,79.3,46a1.43,1.43,0,0,1,.33-2.51,37.87,37.87,0,0,0,4.25-3.23c.55-.45.59-.73,0-1.19a41.68,41.68,0,0,0-4.26-3.22,1.46,1.46,0,0,1-.36-2.52c.82-.88,1.67-1.73,2.54-2.56,1-1,1.87-.85,2.59.37a37.48,37.48,0,0,0,3.31,4.37c.42.52.68.52,1.11,0a22.88,22.88,0,0,0,3.26-4.39,1.34,1.34,0,0,1,2.2-.53c1.06.95,2,2,3,3A1.2,1.2,0,0,1,97.56,34.49Z"/><path class="cls-5" d="M66,58.45c0,.86-.27,1.24-.8,1.37A.94.94,0,0,1,64,59.2c-.34-.92-.65-1.85-.9-2.79a.89.89,0,0,1,.66-1.15c.5-.15,1-.11,1.25.44C65.45,56.68,65.77,57.7,66,58.45Z"/><path class="cls-5" d="M56.22,84.62a1.14,1.14,0,0,1,1.16.62.81.81,0,0,1-.1,1,6.08,6.08,0,0,1-3.41,1.64.86.86,0,0,1-.87-.71.81.81,0,0,1,.23-1C54.26,85.6,55.33,85.08,56.22,84.62Z"/><path class="cls-5" d="M37.22,45.94c-.77.05-1.16-.26-1.28-.86a.93.93,0,0,1,.7-1.14,21.83,21.83,0,0,1,3-.58.92.92,0,0,1,1,.86,1,1,0,0,1-.7,1.14C39,45.61,38,45.77,37.22,45.94Z"/><path class="cls-5" d="M66.88,65.81c-.17.71.48,2.06-1,2.1s-1-1.36-1.09-2.24c0-.35,0-.71,0-1.07-.06-.77.17-1.41,1-1.45s1.1.69,1.09,1.47C66.87,65,66.88,65.34,66.88,65.81Z"/><path class="cls-5" d="M58.13,63.82a1,1,0,0,1-1.25-.88,1,1,0,0,1,.94-1.18c.88-.1,1.76-.2,2.64-.28a.93.93,0,0,1,1.12.86,1,1,0,0,1-.95,1.22C59.8,63.69,59,63.74,58.13,63.82Z"/><path class="cls-5" d="M44.26,64.15c.67,0,1.08.2,1.21.75a1,1,0,0,1-.56,1.21c-.86.36-1.71.72-2.58,1a1,1,0,0,1-1.26-.45.91.91,0,0,1,.25-1.3A10.37,10.37,0,0,1,44.26,64.15Z"/><path class="cls-5" d="M62.06,78.88c.89.07,1.25.59,1,1.27a7,7,0,0,1-2,2.79.89.89,0,0,1-1.22,0,.86.86,0,0,1-.33-1.06,13.69,13.69,0,0,1,2-2.8C61.65,78.92,61.93,78.92,62.06,78.88Z"/><path class="cls-5" d="M29.52,48.73c-.64-.05-1-.2-1.18-.71a1,1,0,0,1,.46-1.26c.87-.43,1.76-.81,2.66-1.16a.91.91,0,0,1,1.22.5.9.9,0,0,1-.21,1.21C31.48,47.86,30.42,48.3,29.52,48.73Z"/><path class="cls-5" d="M88.57,48.4a11,11,0,0,1-1.14,2.93.93.93,0,0,1-1.28.36,1,1,0,0,1-.54-1.33c.3-.83.63-1.65,1-2.47a1,1,0,0,1,1.28-.63C88.42,47.4,88.57,47.84,88.57,48.4Z"/><path class="cls-5" d="M38.77,69.85c-.48.8-1.06,1.89-1.76,2.89-.21.3-.75.23-1.11,0a1,1,0,0,1-.37-1.19A8.07,8.07,0,0,1,37,68.85a.92.92,0,0,1,1.2-.27C38.59,68.78,38.82,69.07,38.77,69.85Z"/><path class="cls-5" d="M66.21,72.59c-.25.85-.47,1.76-.77,2.65a1,1,0,0,1-1.38.69,1,1,0,0,1-.64-1.3c.22-.86.49-1.71.74-2.56a1,1,0,0,1,1.23-.72C66,71.48,66.23,71.93,66.21,72.59Z"/><path class="cls-5" d="M41.78,86.1c0,.89-.49,1.33-1.2,1.11A5.47,5.47,0,0,1,37.66,85a.85.85,0,0,1,.17-1.1.81.81,0,0,1,1.07-.28c.92.6,1.81,1.26,2.69,1.92C41.72,85.7,41.74,86,41.78,86.1Z"/><path class="cls-5" d="M47.3,86.78a10.47,10.47,0,0,1,1.46,0,1,1,0,0,1,1,1.07,1,1,0,0,1-1,1c-.84,0-1.68,0-2.52-.05-.68,0-1.26-.32-1.22-1.11s.66-1.06,1.41-1c.31,0,.62,0,.93,0Z"/><path class="cls-5" d="M52.35,62.37c.53,0,1,.21,1.12.86a1,1,0,0,1-.89,1.24c-.87.15-1.75.33-2.63.44a1,1,0,0,1-1.18-.84,1,1,0,0,1,.77-1.21C50.44,62.65,51.37,62.53,52.35,62.37Z"/><path class="cls-5" d="M53.27,43.95a9.79,9.79,0,0,1,2.87,1.26.94.94,0,0,1,.33,1.28.87.87,0,0,1-1.09.52,26.33,26.33,0,0,1-2.92-1.22.92.92,0,0,1-.36-1.17C52.27,44.05,52.7,43.91,53.27,43.95Z"/><path class="cls-5" d="M34.69,78.19c0-1.08-.14-2.21,1.12-1.92,1.62.37.74,2,1.13,3,.23.59.24,1.28-.54,1.55a.93.93,0,0,1-1.35-.66C34.88,79.47,34.79,78.72,34.69,78.19Z"/><path class="cls-5" d="M61.55,52.4a1,1,0,0,1-.81-.38c-.54-.64-1.08-1.28-1.61-1.94a1,1,0,0,1,0-1.53,1,1,0,0,1,1.43.05,15.4,15.4,0,0,1,1.85,2.24A1,1,0,0,1,61.55,52.4Z"/><path class="cls-5" d="M46.36,44.89H45a.91.91,0,0,1-1-1,.92.92,0,0,1,1-1c.84,0,1.69,0,2.53,0s1.24.32,1.19,1.12-.61,1-1.33.94c-.35,0-.71,0-1.07,0Z"/><path class="cls-5" d="M23.31,52.7a4.63,4.63,0,0,1,0-2.73,6.3,6.3,0,0,1,.79-.46,1,1,0,0,1,1.37.39,1,1,0,0,1-.29,1.39C24.6,51.79,24,52.24,23.31,52.7Z"/><path class="cls-7" d="M91.84,65.44a20.37,20.37,0,0,1,20.4,20.4,20.45,20.45,0,1,1-40.9.16A20.33,20.33,0,0,1,91.84,65.44Z"/><path class="cls-7" d="M74,62.37a4.35,4.35,0,1,1,8.69.28,4.16,4.16,0,0,1-4.47,4.24A4.2,4.2,0,0,1,74,62.37Z"/><path class="cls-6" d="M93.76,46.34c-.44-.07-.55-.4-.72-.64a30.88,30.88,0,0,0-3.43-4.09c-1.11-1.13-1.81-1.11-2.85.14s-2.25,2.76-3.38,4.14c-.18.22-.32.7-.68.44a4.48,4.48,0,0,1-1.21-1.22c-.22-.35.29-.45.51-.63,1.34-1.1,2.71-2.16,4-3.29s1.25-1.91,0-3S83.38,36,82,34.9c-.24-.2-.81-.33-.55-.75A3.52,3.52,0,0,1,82.73,33c.39-.21.52.36.73.61,1.14,1.37,2.22,2.79,3.39,4.13.94,1.08,1.7,1.07,2.69.08A32,32,0,0,0,93,33.72c.18-.25.3-.8.75-.55a2.25,2.25,0,0,1,.92.93c.21.45-.35.52-.6.71a44,44,0,0,0-4.15,3.56,1.53,1.53,0,0,0,0,2.52,35.49,35.49,0,0,0,4.34,3.74c.22.16.7.27.46.67A7,7,0,0,1,93.76,46.34Z"/><path class="cls-8" d="M93.59,67.64c7.08.27,14,6.11,15.94,13.53a18.46,18.46,0,0,1-18.94,23.22c-4.79-1.09-8.05-4.21-10.44-8.29a19.82,19.82,0,0,1,5.92-26.64A9.82,9.82,0,0,1,93.59,67.64Z"/><path class="cls-9" d="M93.59,67.64c-7.53.09-11.74,4.87-14.35,11.06-3.17,7.5-1.5,14.53,3.79,20.61a16.66,16.66,0,0,0,6.5,4.54,2.8,2.8,0,0,1,1.06.54A17.55,17.55,0,0,1,75.25,94.16,18.49,18.49,0,0,1,92.15,67.43,3.29,3.29,0,0,1,93.59,67.64Z"/><path class="cls-10" d="M78.33,60.17a2.47,2.47,0,0,1,2.33,2.32,2.41,2.41,0,0,1-2.29,2.35,2.34,2.34,0,1,1,0-4.67Z"/><path class="cls-7" d="M100.06,97.88c0,.68.06,1.26-.5,1.58s-1.09,0-1.59-.3a23.18,23.18,0,0,1-5.54-5.37c-4.06-5.27-7.24-11-8.63-17.59a12.66,12.66,0,0,1-.27-2.65c0-1.2.74-1.6,1.77-1a17.73,17.73,0,0,1,4.13,3.56A44.35,44.35,0,0,1,99.77,95.78C99.94,96.51,100,97.28,100.06,97.88Z"/><path class="cls-11" d="M85.93,75.8A17.74,17.74,0,0,1,90,80c.49.63,1,1.29,1.4,2,1.67,2.47,1.66,2.46-1.06,3.77-.45.22-.68.25-.94-.24A30.91,30.91,0,0,1,85.93,75.8Z"/><path class="cls-12" d="M97.69,96.29a35.84,35.84,0,0,1-6.62-8.12c-.18-.28-.17-.48.13-.65l.23-.14c3-1.63,2.1-1.9,3.56,1A26.88,26.88,0,0,1,97.69,96.29Z"/></g></g></svg>