<svg xmlns="http://www.w3.org/2000/svg" viewBox="0 0 123.57 117.24"><defs><style>.cls-1{fill:#503372;stroke:#503372;stroke-miterlimit:10;stroke-width:13px;}.cls-2{fill:#f7cf16;}.cls-3{fill:#54c893;}.cls-4{fill:#494949;}.cls-5{fill:#4b31a9;}.cls-6{fill:#494948;}.cls-7{fill:#484848;}.cls-8{fill:#4b4b4a;}.cls-9{fill:#484747;}.cls-10{fill:#484847;}.cls-11{fill:#494848;}.cls-12{fill:#474747;}.cls-13{fill:#464646;}.cls-14{fill:#504f4c;}.cls-15{fill:#fefefe;}.cls-16{fill:#f1efe6;}.cls-17{fill:#fcf2d0;}.cls-18{fill:#c8e4f5;}.cls-19{fill:#fdfdfd;}</style></defs><title>treasure</title><g id="Layer_2" data-name="Layer 2"><g id="Layer_1-2" data-name="Layer 1"><path class="cls-1" d="M56.57,20.06H96.28c1.69,0,1.7,0,1.7-1.75,0-3.4,0-6.8,0-10.19,0-1.23.47-1.7,1.69-1.61a15.27,15.27,0,0,1,6.17,1.61,7.54,7.54,0,0,1,4.42,7.19c-.06,17.3,0,34.61-.05,51.91a4.45,4.45,0,0,0,1.09,3c6,7.61,7.44,16.07,3.83,25s-10.55,14-20.08,15.28A24.48,24.48,0,0,1,70.59,97.88a2.09,2.09,0,0,0-2.15-1.29q-24.08.06-48.16,0c-1.19,0-1.49.29-1.46,1.47.09,3.44,0,6.89,0,10.33,0,1.27-.42,1.77-1.72,1.71a14.06,14.06,0,0,1-6.75-1.93,7.46,7.46,0,0,1-3.87-6.86q.06-27.43,0-54.87c0-5.59.17-11.19,0-16.77-.21-5.4,3-7.75,6.81-9a15.84,15.84,0,0,1,4.9-.64Z"/><path class="cls-2" d="M70.07,61.88a8.52,8.52,0,0,0,3.07,7.25c.61.51.28.76,0,1.16a24.75,24.75,0,0,0-5.41,18.53A31.58,31.58,0,0,0,69,94.47c-.38,0-.68,0-1,0H24c-.27,0-.53,0-.8,0a2.22,2.22,0,0,1-.55-1.86q0-19,0-38A4.32,4.32,0,0,1,22.85,53c.36-.83,1.16-1.2,1.8-1.74.31-.26.66-.55.46-1s-.6-.29-.95-.23-.79.19-1.14-.15a3.59,3.59,0,0,1-.37-2.2c0-5.26,0-10.52,0-15.78,0-2.11,0-2.1-2-2.46a11,11,0,0,1-6.24-3.1c-.83-.87-1.78-1.84-1.16-3.29a12,12,0,0,1,5.48-1q40,0,79.93,0a14,14,0,0,0,9.38-3v47.6c-.25.12-.39-.1-.55-.22a24.34,24.34,0,0,0-18.64-4.93c-1.2.17-1.59-.14-1.76-1.27a6.88,6.88,0,0,0-1.35-2.88c-.48-.67-1.3-1.12-.83-2.27.27-.67-.8-1.31-1.47-.8s-1.17.29-1.81.06c-4.9-1.73-10.43,1.4-11.18,6.3-.25.57-.71.4-1.14.31a6.24,6.24,0,0,0-2.62.25c-.34.08-.72.23-.69.68s.48.46.81.48A7.48,7.48,0,0,0,69,62C69.32,61.95,69.65,61.61,70.07,61.88Z"/><path class="cls-2" d="M13.19,23.07c.54,3.14,3,4.38,5.54,5.41a7.85,7.85,0,0,0,2.73.57c1.18,0,1.76.46,1.74,1.86-.09,5.85,0,11.7,0,17.54,0,.52-.17,1.08.28,1.53a4.87,4.87,0,0,1,0,2.73,2.46,2.46,0,0,0-.26,1.42q0,20.16,0,40.33c-1.38,0-3.13.49-4-.17s-.27-2.5-.27-3.82q0-27.4,0-54.81c0-2,0-1.94-2-2.11a11.49,11.49,0,0,1-5.88-2c-3-2.14-3-5.22,0-7.38A5.34,5.34,0,0,1,13.19,23.07Z"/><path class="cls-3" d="M114.9,85.8a22.63,22.63,0,0,1-45.08,3.09,22.39,22.39,0,0,1,5.74-18.18c1.16-1.32,1.13-1.69-.37-2.68a6.5,6.5,0,0,1-2.6-7.76A6.58,6.58,0,0,1,79.46,56a6.51,6.51,0,0,1,5.76,6.25c.11,1.82.33,2,2.1,1.63a22.61,22.61,0,0,1,27.22,18.17A14.52,14.52,0,0,1,114.9,85.8Z"/><path class="cls-4" d="M70.07,61.88c-1.17,1-2.63.91-4,1-.47,0-.76-.41-.77-.93s.22-1,.69-1c1.35-.11,2.71-1.05,4.08,0,0,0,.2-.14.31-.21A2.1,2.1,0,0,1,70.07,61.88Z"/><path class="cls-5" d="M98.06,34.5a1.46,1.46,0,0,1-1,1.31,22.81,22.81,0,0,0-4.39,3.28c-.5.42-.52.7,0,1.13A23.34,23.34,0,0,0,97,43.54c1.24.66,1.39,1.54.43,2.57-.79.85-1.61,1.68-2.46,2.47s-1.87.79-2.48-.4a24.34,24.34,0,0,0-2.93-4c-.67-.82-1.17-.74-1.78.05a38.28,38.28,0,0,0-3,4c-.72,1.23-1.57,1.34-2.59.36S80.53,46.89,79.7,46A1.42,1.42,0,0,1,80,43.51a38,38,0,0,0,4.27-3.23c.55-.45.59-.73,0-1.19A41.88,41.88,0,0,0,80,35.87a1.46,1.46,0,0,1-.36-2.52c.82-.88,1.68-1.73,2.56-2.56,1-1,1.88-.85,2.6.37a37.5,37.5,0,0,0,3.32,4.37c.43.52.68.52,1.12,0a22.89,22.89,0,0,0,3.27-4.39,1.35,1.35,0,0,1,2.21-.53c1.07.95,2,2,3,3A1.2,1.2,0,0,1,98.06,34.5Z"/><path class="cls-6" d="M66.35,58.46c0,.86-.27,1.24-.8,1.37a1,1,0,0,1-1.19-.63c-.34-.92-.65-1.85-.9-2.79a.89.89,0,0,1,.66-1.15c.5-.15,1-.11,1.26.44C65.77,56.7,66.09,57.72,66.35,58.46Z"/><path class="cls-6" d="M56.5,84.63a1.15,1.15,0,0,1,1.16.62.8.8,0,0,1-.1,1,6.12,6.12,0,0,1-3.43,1.64.87.87,0,0,1-.87-.71.8.8,0,0,1,.23-1C54.52,85.62,55.6,85.09,56.5,84.63Z"/><path class="cls-7" d="M37.4,46c-.77.05-1.17-.26-1.29-.86a.93.93,0,0,1,.7-1.14,22,22,0,0,1,3-.58.92.92,0,0,1,1,.86,1,1,0,0,1-.7,1.14C39.19,45.63,38.23,45.79,37.4,46Z"/><path class="cls-8" d="M67.21,65.83c-.17.71.48,2.06-1,2.1s-1-1.36-1.1-2.24c0-.35,0-.71,0-1.07-.07-.77.17-1.41,1-1.45s1.11.69,1.09,1.47C67.2,65,67.21,65.36,67.21,65.83Z"/><path class="cls-7" d="M58.41,63.84A1,1,0,0,1,57.15,63a1,1,0,0,1,.95-1.18c.88-.1,1.77-.2,2.65-.28a.93.93,0,0,1,1.13.86,1,1,0,0,1-1,1.22C60.1,63.71,59.25,63.76,58.41,63.84Z"/><path class="cls-7" d="M44.48,64.16c.67,0,1.09.2,1.22.75a1,1,0,0,1-.56,1.21c-.86.36-1.72.72-2.59,1a1,1,0,0,1-1.26-.45.91.91,0,0,1,.26-1.3A10.45,10.45,0,0,1,44.48,64.16Z"/><path class="cls-7" d="M62.37,78.9c.89.07,1.25.59,1,1.27a7,7,0,0,1-2,2.79.9.9,0,0,1-1.22,0,.86.86,0,0,1-.34-1.06,13.69,13.69,0,0,1,2-2.8C61.95,78.94,62.23,78.94,62.37,78.9Z"/><path class="cls-9" d="M29.66,48.75c-.64-.05-1-.2-1.19-.71a1,1,0,0,1,.46-1.26c.87-.43,1.77-.81,2.67-1.16a.92.92,0,0,1,1.23.5.89.89,0,0,1-.21,1.21C31.62,47.88,30.56,48.32,29.66,48.75Z"/><path class="cls-7" d="M89,48.41a11,11,0,0,1-1.15,2.93.94.94,0,0,1-1.28.36A1,1,0,0,1,86,50.37c.3-.83.64-1.65,1-2.47a1,1,0,0,1,1.28-.63C88.86,47.41,89,47.85,89,48.41Z"/><path class="cls-10" d="M39,69.87c-.48.8-1.07,1.89-1.77,2.89-.21.3-.75.23-1.12,0a1,1,0,0,1-.38-1.19,8.06,8.06,0,0,1,1.48-2.68.93.93,0,0,1,1.21-.27C38.77,68.79,39,69.09,39,69.87Z"/><path class="cls-10" d="M66.54,72.61c-.25.85-.48,1.76-.78,2.65a1,1,0,0,1-1.38.69,1,1,0,0,1-.64-1.3c.23-.86.49-1.71.74-2.56a1,1,0,0,1,1.24-.72C66.33,71.5,66.56,71.95,66.54,72.61Z"/><path class="cls-11" d="M42,86.12c0,.89-.49,1.33-1.2,1.11a5.5,5.5,0,0,1-2.94-2.17A.85.85,0,0,1,38,84a.82.82,0,0,1,1.07-.28c.92.6,1.82,1.26,2.7,1.92C41.92,85.71,41.94,86,42,86.12Z"/><path class="cls-7" d="M47.53,86.8a10.58,10.58,0,0,1,1.47,0,1,1,0,0,1,1,1.07,1,1,0,0,1-1,1c-.84,0-1.69,0-2.53-.05-.68,0-1.26-.32-1.22-1.11s.66-1.06,1.42-1c.31,0,.62,0,.93,0Z"/><path class="cls-6" d="M52.6,62.39c.53,0,1,.21,1.12.86a1,1,0,0,1-.9,1.24c-.88.15-1.76.33-2.64.44A1,1,0,0,1,49,64.08a1,1,0,0,1,.78-1.21C50.69,62.67,51.62,62.55,52.6,62.39Z"/><path class="cls-10" d="M53.53,44a9.87,9.87,0,0,1,2.88,1.26.93.93,0,0,1,.33,1.28.88.88,0,0,1-1.1.52,26.54,26.54,0,0,1-2.94-1.22.91.91,0,0,1-.36-1.17C52.52,44.07,53,43.93,53.53,44Z"/><path class="cls-12" d="M34.86,78.21c0-1.08-.14-2.21,1.13-1.92,1.63.37.75,2,1.14,3,.23.59.24,1.28-.54,1.55a.93.93,0,0,1-1.35-.66C35,79.48,35,78.73,34.86,78.21Z"/><path class="cls-12" d="M61.85,52.42A1,1,0,0,1,61,52c-.54-.64-1.09-1.28-1.62-1.94a1,1,0,0,1,0-1.53,1,1,0,0,1,1.44.05,15.42,15.42,0,0,1,1.86,2.24A1,1,0,0,1,61.85,52.42Z"/><path class="cls-13" d="M46.58,44.91H45.24a.91.91,0,0,1-1-1,.93.93,0,0,1,1-1c.85,0,1.7,0,2.54,0S49,43.2,49,44s-.62,1-1.33.94c-.35,0-.71,0-1.07,0Z"/><path class="cls-14" d="M23.42,52.72a4.6,4.6,0,0,1,0-2.73,6.34,6.34,0,0,1,.8-.46,1,1,0,0,1,1.38.39,1,1,0,0,1-.29,1.39C24.71,51.81,24.06,52.25,23.42,52.72Z"/><path class="cls-13" d="M92.3,65.46a20.42,20.42,0,0,1,20.51,20.4A20.56,20.56,0,1,1,71.69,86,20.38,20.38,0,0,1,92.3,65.46Z"/><path class="cls-13" d="M74.33,62.39a4.37,4.37,0,1,1,8.73.28,4.37,4.37,0,1,1-8.73-.28Z"/><path class="cls-5" d="M94.23,46.36c-.44-.07-.55-.4-.72-.64a30.92,30.92,0,0,0-3.45-4.09c-1.12-1.13-1.82-1.11-2.87.14s-2.26,2.76-3.4,4.14c-.18.22-.32.7-.68.44a4.5,4.5,0,0,1-1.21-1.22c-.22-.35.29-.45.51-.63,1.35-1.1,2.73-2.16,4.05-3.29s1.26-1.91,0-3-2.69-2.21-4-3.32c-.24-.2-.82-.33-.55-.75A3.54,3.54,0,0,1,83.14,33c.39-.21.52.36.73.61C85,35,86.11,36.38,87.28,37.72c.94,1.08,1.71,1.07,2.71.08a32.08,32.08,0,0,0,3.48-4.06c.18-.25.3-.8.75-.55a2.25,2.25,0,0,1,.93.93c.21.45-.36.52-.6.71a44.11,44.11,0,0,0-4.17,3.56,1.53,1.53,0,0,0,0,2.52,35.63,35.63,0,0,0,4.37,3.74c.22.16.71.27.46.67A7.05,7.05,0,0,1,94.23,46.36Z"/><path class="cls-15" d="M94.06,67.65c7.12.27,14,6.11,16,13.53A18.49,18.49,0,0,1,91,104.4c-4.82-1.09-8.09-4.21-10.5-8.29a19.75,19.75,0,0,1,5.95-26.64A9.91,9.91,0,0,1,94.06,67.65Z"/><path class="cls-16" d="M94.06,67.65c-7.57.09-11.8,4.87-14.43,11.06-3.19,7.5-1.5,14.53,3.81,20.61A16.75,16.75,0,0,0,90,103.87a2.82,2.82,0,0,1,1.06.54A17.64,17.64,0,0,1,75.62,94.18a18.49,18.49,0,0,1,17-26.74A3.32,3.32,0,0,1,94.06,67.65Z"/><path class="cls-17" d="M78.72,60.19a2.48,2.48,0,0,1,2.34,2.32,2.42,2.42,0,0,1-2.3,2.35,2.34,2.34,0,1,1,0-4.67Z"/><path class="cls-13" d="M100.57,97.89c0,.68.06,1.26-.5,1.58s-1.1,0-1.6-.3a23.25,23.25,0,0,1-5.57-5.37c-4.08-5.27-7.28-11-8.67-17.59A12.6,12.6,0,0,1,84,73.56c0-1.2.74-1.6,1.78-1a17.8,17.8,0,0,1,4.15,3.56,44.27,44.27,0,0,1,10.39,19.64C100.44,96.53,100.49,97.29,100.57,97.89Z"/><path class="cls-18" d="M86.36,75.82A17.79,17.79,0,0,1,90.45,80c.49.63,1,1.29,1.41,2,1.67,2.47,1.66,2.46-1.06,3.77-.45.22-.68.25-.94-.24A30.81,30.81,0,0,1,86.36,75.82Z"/><path class="cls-19" d="M98.18,96.3a35.88,35.88,0,0,1-6.65-8.12c-.18-.28-.17-.48.13-.65l.23-.14c3-1.63,2.11-1.9,3.58,1A26.78,26.78,0,0,1,98.18,96.3Z"/></g></g></svg>