<svg xmlns="http://www.w3.org/2000/svg" viewBox="0 0 132.69 135.85"><defs><style>.cls-1{fill:#503372;}.cls-2{fill:#dd236d;}.cls-3{fill:#dd246e;}.cls-4{fill:#19cece;}.cls-5{fill:#1acece;}.cls-6{fill:#dd226d;}.cls-7{fill:#17cdcd;}.cls-8{fill:#f7cf16;}</style></defs><title>wheel</title><g id="Layer_2" data-name="Layer 2"><g id="Layer_1-2" data-name="Layer 1"><path class="cls-1" d="M103.87,110.23c13.49-12,20.35-27,20.47-45.1a12.13,12.13,0,0,0,0-1.51A53.13,53.13,0,0,0,113,33.2C103.14,20.85,90.84,12.54,75,10c-2.32-1.37-4.71-2.46-7.52-1.95a3.37,3.37,0,0,0-2.08,1.08,60.29,60.29,0,0,0-36.47,14C25,24,23.41,27,22.1,30.26a69.73,69.73,0,0,0-9.69,17.86c-1.82,5.21-1.93,10.7-3.31,16a3.15,3.15,0,0,0-1,3c.54,2.07.3,4.36,1.76,6.17,2.24,15,9,27.57,20.93,37.11,2.68,2.14,2.1,3.33,0,5.28-3.52,3.26-6.89,6.69-10.19,10.18s-2.81,6,1.35,8.61c2.61,1.32,5.41,1.42,8.27,1.42q36.92,0,73.83,0a26.11,26.11,0,0,0,6-.37c4-.93,5.06-2.91,4.09-7.32L102.9,116.32C102,114.1,101.52,112.31,103.87,110.23Zm2.11-70c4.09,5.29,6.12,11.41,7.18,17.91,1.21,2.17,1.4,3.92-1.84,3.93-7.41,0-14.83,0-22.4-.36H87.47a6.16,6.16,0,0,1-1.52-.17c-2.61-.16-5.24-.37-7.9-.64q5.48-5.56,11-11.12c3.52-3.54,7.25-6.9,10.54-10.64C102.58,35.68,104.48,36,106,40.22ZM70.82,22.47c0-3,1.13-3.85,3.85-3.29,6.69,1.39,13.14,3.33,18.41,8,3.24,1.33,3.24,2.79.69,5.19-6.11,5.78-12,11.83-17.94,17.77h0L72.1,54c-2-1.22-1.17-2.87-1.19-4.17C70.83,40.73,71,31.6,70.82,22.47ZM40.45,26.05a49.22,49.22,0,0,1,17.47-6.93c2.57-.48,4.07-.27,4,3C61.88,32.05,62,42,62,52c0,1.12.31,3.43-2,1.21L40,33.13C35.47,29.2,35.48,29.22,40.45,26.05ZM19.07,58.82C20.42,51.16,23,43.91,28,37.94c2.78-3.33,3.62.77,5.28,2a2.89,2.89,0,0,1,.53.29l20.1,20.1h0c1.23,1.24.46,1.7-.77,1.69-10.49,0-21-.11-31.48-.11C19.38,61.94,18.72,60.86,19.07,58.82ZM30.84,95.13h0c-1.51,2-2.24.23-3-.71A49.45,49.45,0,0,1,19.12,74c-.43-2.15,0-3.51,2.66-3.49,10.76.07,21.52,0,32.54,0-.66,2.32-2.07,3.43-3.42,4.58ZM95,104.24c-1.61,1.22-2.79,1.81-4.57,0C84,97.65,77.41,91.34,71,84.78c-2-2.11-4.18-3.14-7-2.62-7.22,7.34-14.5,14.62-21.61,22.07-2,2.09-3.37,1.32-5-.15-2.26-2.06.25-2.87,1.17-3.8C46.75,92,55.08,83.85,63.19,75.51c2.49-2.56,4.22-3,5.88.55h0c9.14,7.74,17,16.78,25.65,25C95.73,102.07,96.69,102.95,95,104.24ZM100.62,94C94.47,87.65,88.21,81.43,82,75.18a10.19,10.19,0,0,1-4-4.71H92.45c5.94,0,11.87,0,17.81,0,2.7,0,4.34.64,2.77,3.74-.68,7.34-4,13.58-7.93,19.65C103.44,96.42,102.33,95.73,100.62,94Z"/><path class="cls-2" d="M107.8,113.15c-1.17-5.4.17-6.92,5.93-6.73l2.33,2.86c1.25,5.07-.05,6.64-5.05,6.06A5.67,5.67,0,0,1,107.8,113.15Z"/><path class="cls-3" d="M111,27.21c-2.49-1.07-4.32-2.65-3.76-5.66a3.92,3.92,0,0,1,3.24-3.38c2.71-.53,4.46.72,5.62,3.06C117.25,26.19,116,27.65,111,27.21Z"/><path class="cls-4" d="M9.1,64.08,9,66.74c-.57,2.7-2.05,4-4.9,3.2C1.79,68.83-.4,67.58.06,64.45a4.13,4.13,0,0,1,3.07-3.56C6.14,60,7.8,61.74,9.1,64.08Z"/><path class="cls-2" d="M20.88,27.31c-2.58-.8-4.56-2.2-4.37-5.22a3.91,3.91,0,0,1,3.24-3.89c2.59-.51,4.56.36,5.53,3C26,25.7,25.29,26.68,20.88,27.31Z"/><path class="cls-5" d="M66.73,9.18H65.39C63.12,7.86,61.3,6.27,62,3.25A3.73,3.73,0,0,1,64.88.18c2.89-.68,4.77.61,6.05,3.09C73.15,7.81,69.32,8.05,66.73,9.18Z"/><path class="cls-6" d="M20.85,115.42c-2.62-.69-4.51-2.1-4.36-5.07a4.13,4.13,0,0,1,3.19-3.93c2.59-.7,4.42.49,5.56,2.83C26.15,114.13,25.45,115.11,20.85,115.42Z"/><path class="cls-7" d="M123.14,64.43c1.3-3,3.75-3.72,6.71-3.45,1.7.51,1.94,2.2,2.75,3.43.45,5.27-.85,6.23-6.62,4.91-1.72-.82-1.88-2.73-2.84-4.08A2.63,2.63,0,0,1,123.14,64.43Z"/><path class="cls-8" d="M98.32,125.57H33.43c5.62-5.76,10.64-11,15.71-16.1,4.91-5,9.88-9.91,14.84-14.84,1.12-1.11,2-2.71,3.95-.72C77.83,104,87.84,114,97.79,124.1,98.08,124.4,98.11,125,98.32,125.57Z"/></g></g></svg>